<svg width="447" height="68" viewBox="0 0 447 68" fill="none" xmlns="http://www.w3.org/2000/svg">
<path d="M8.14563 11.12C9.68163 7.792 11.5696 5.2 13.8096 3.344C16.0496 1.456 18.7856 0.511999 22.0176 0.511999C23.0416 0.511999 24.0176 0.623999 24.9456 0.847998C25.9056 1.072 26.7536 1.424 27.4896 1.904L26.8656 8.288C26.6736 9.088 26.1936 9.488 25.4256 9.488C24.9776 9.488 24.3216 9.392 23.4576 9.2C22.5936 9.008 21.6176 8.912 20.5296 8.912C18.9936 8.912 17.6176 9.136 16.4016 9.584C15.2176 10.032 14.1456 10.704 13.1856 11.6C12.2576 12.464 11.4096 13.552 10.6416 14.864C9.90563 16.144 9.23363 17.616 8.62563 19.28V50H0.0336251V1.376H4.92963C5.85763 1.376 6.49763 1.552 6.84963 1.904C7.20163 2.256 7.44163 2.864 7.56963 3.728L8.14563 11.12ZM60.6044 28.112C56.6684 28.24 53.3084 28.56 50.5244 29.072C47.7724 29.552 45.5164 30.192 43.7564 30.992C42.0284 31.792 40.7644 32.736 39.9644 33.824C39.1964 34.912 38.8124 36.128 38.8124 37.472C38.8124 38.752 39.0204 39.856 39.4364 40.784C39.8524 41.712 40.4124 42.48 41.1164 43.088C41.8524 43.664 42.7004 44.096 43.6604 44.384C44.6524 44.64 45.7084 44.768 46.8284 44.768C48.3324 44.768 49.7084 44.624 50.9564 44.336C52.2044 44.016 53.3724 43.568 54.4604 42.992C55.5804 42.416 56.6364 41.728 57.6284 40.928C58.6524 40.128 59.6444 39.216 60.6044 38.192V28.112ZM33.0044 8.24C35.6924 5.648 38.5884 3.712 41.6924 2.432C44.7964 1.152 48.2364 0.511999 52.0124 0.511999C54.7324 0.511999 57.1484 0.959999 59.2604 1.856C61.3724 2.752 63.1484 4 64.5884 5.6C66.0284 7.2 67.1164 9.136 67.8524 11.408C68.5884 13.68 68.9564 16.176 68.9564 18.896V50H65.1644C64.3324 50 63.6924 49.872 63.2444 49.616C62.7964 49.328 62.4444 48.784 62.1884 47.984L61.2284 43.376C59.9484 44.56 58.7004 45.616 57.4844 46.544C56.2684 47.44 54.9884 48.208 53.6444 48.848C52.3004 49.456 50.8604 49.92 49.3244 50.24C47.8204 50.592 46.1404 50.768 44.2844 50.768C42.3964 50.768 40.6204 50.512 38.9564 50C37.2924 49.456 35.8364 48.656 34.5884 47.6C33.3724 46.544 32.3964 45.216 31.6604 43.616C30.9564 41.984 30.6044 40.064 30.6044 37.856C30.6044 35.936 31.1324 34.096 32.1884 32.336C33.2444 30.544 34.9564 28.96 37.3244 27.584C39.6924 26.208 42.7804 25.088 46.5884 24.224C50.3964 23.328 55.0684 22.816 60.6044 22.688V18.896C60.6044 15.12 59.7884 12.272 58.1564 10.352C56.5244 8.4 54.1404 7.424 51.0044 7.424C48.8924 7.424 47.1164 7.696 45.6764 8.24C44.2684 8.752 43.0364 9.344 41.9804 10.016C40.9564 10.656 40.0604 11.248 39.2924 11.792C38.5564 12.304 37.8204 12.56 37.0844 12.56C36.5084 12.56 36.0124 12.416 35.5964 12.128C35.1804 11.808 34.8284 11.424 34.5404 10.976L33.0044 8.24ZM90.0351 8.432C91.0911 7.248 92.2111 6.176 93.3951 5.216C94.5791 4.256 95.8271 3.44 97.1391 2.768C98.4831 2.064 99.8911 1.536 101.363 1.184C102.867 0.799997 104.483 0.607998 106.211 0.607998C108.867 0.607998 111.203 1.056 113.219 1.952C115.267 2.816 116.963 4.064 118.307 5.696C119.683 7.296 120.723 9.232 121.427 11.504C122.131 13.776 122.483 16.288 122.483 19.04V50H113.891V19.04C113.891 15.36 113.043 12.512 111.347 10.496C109.683 8.448 107.139 7.424 103.715 7.424C101.187 7.424 98.8191 8.032 96.6111 9.248C94.4351 10.464 92.4191 12.112 90.5631 14.192V50H81.9711V1.376H87.1071C88.3231 1.376 89.0751 1.968 89.3631 3.152L90.0351 8.432ZM152.446 26.24C154.174 26.24 155.694 26 157.006 25.52C158.318 25.04 159.422 24.368 160.318 23.504C161.214 22.64 161.886 21.616 162.334 20.432C162.782 19.216 163.006 17.888 163.006 16.448C163.006 13.472 162.094 11.104 160.27 9.344C158.478 7.584 155.87 6.704 152.446 6.704C148.99 6.704 146.35 7.584 144.526 9.344C142.734 11.104 141.838 13.472 141.838 16.448C141.838 17.888 142.062 19.216 142.51 20.432C142.99 21.616 143.678 22.64 144.574 23.504C145.47 24.368 146.574 25.04 147.886 25.52C149.198 26 150.718 26.24 152.446 26.24ZM167.854 52.64C167.854 51.456 167.518 50.496 166.846 49.76C166.174 49.024 165.262 48.448 164.11 48.032C162.99 47.616 161.678 47.328 160.174 47.168C158.67 46.976 157.07 46.832 155.374 46.736C153.71 46.64 152.014 46.544 150.286 46.448C148.558 46.352 146.894 46.192 145.294 45.968C143.502 46.8 142.03 47.856 140.878 49.136C139.758 50.384 139.198 51.856 139.198 53.552C139.198 54.64 139.47 55.648 140.014 56.576C140.59 57.536 141.454 58.352 142.606 59.024C143.758 59.728 145.198 60.272 146.926 60.656C148.686 61.072 150.75 61.28 153.118 61.28C155.422 61.28 157.486 61.072 159.31 60.656C161.134 60.24 162.67 59.648 163.918 58.88C165.198 58.112 166.174 57.2 166.846 56.144C167.518 55.088 167.854 53.92 167.854 52.64ZM176.542 3.296V6.464C176.542 7.52 175.87 8.192 174.526 8.48L169.006 9.2C170.094 11.312 170.638 13.648 170.638 16.208C170.638 18.576 170.174 20.736 169.246 22.688C168.35 24.608 167.102 26.256 165.502 27.632C163.902 29.008 161.982 30.064 159.742 30.8C157.502 31.536 155.07 31.904 152.446 31.904C150.174 31.904 148.03 31.632 146.014 31.088C144.99 31.728 144.206 32.416 143.662 33.152C143.118 33.856 142.846 34.576 142.846 35.312C142.846 36.464 143.31 37.344 144.238 37.952C145.198 38.528 146.446 38.944 147.982 39.2C149.518 39.456 151.262 39.616 153.214 39.68C155.198 39.744 157.214 39.856 159.262 40.016C161.342 40.144 163.358 40.384 165.31 40.736C167.294 41.088 169.054 41.664 170.59 42.464C172.126 43.264 173.358 44.368 174.286 45.776C175.246 47.184 175.726 49.008 175.726 51.248C175.726 53.328 175.198 55.344 174.142 57.296C173.118 59.248 171.63 60.976 169.678 62.48C167.726 64.016 165.326 65.232 162.478 66.128C159.662 67.056 156.478 67.52 152.926 67.52C149.374 67.52 146.27 67.168 143.614 66.464C140.958 65.76 138.75 64.816 136.99 63.632C135.23 62.448 133.902 61.072 133.006 59.504C132.142 57.968 131.71 56.352 131.71 54.656C131.71 52.256 132.462 50.224 133.966 48.56C135.47 46.896 137.534 45.568 140.158 44.576C138.718 43.936 137.566 43.088 136.702 42.032C135.87 40.944 135.454 39.488 135.454 37.664C135.454 36.96 135.582 36.24 135.838 35.504C136.094 34.736 136.478 33.984 136.99 33.248C137.534 32.48 138.19 31.76 138.958 31.088C139.726 30.416 140.622 29.824 141.646 29.312C139.246 27.968 137.374 26.192 136.03 23.984C134.686 21.744 134.014 19.152 134.014 16.208C134.014 13.84 134.462 11.696 135.358 9.776C136.286 7.824 137.566 6.176 139.198 4.832C140.83 3.456 142.766 2.4 145.006 1.664C147.278 0.927996 149.758 0.559996 152.446 0.559996C154.558 0.559996 156.526 0.799995 158.35 1.27999C160.174 1.728 161.838 2.4 163.342 3.296H176.542ZM202.134 26.24C203.862 26.24 205.382 26 206.694 25.52C208.006 25.04 209.11 24.368 210.006 23.504C210.902 22.64 211.574 21.616 212.022 20.432C212.47 19.216 212.694 17.888 212.694 16.448C212.694 13.472 211.782 11.104 209.958 9.344C208.166 7.584 205.558 6.704 202.134 6.704C198.678 6.704 196.038 7.584 194.214 9.344C192.422 11.104 191.526 13.472 191.526 16.448C191.526 17.888 191.75 19.216 192.198 20.432C192.678 21.616 193.366 22.64 194.262 23.504C195.158 24.368 196.262 25.04 197.574 25.52C198.886 26 200.406 26.24 202.134 26.24ZM217.542 52.64C217.542 51.456 217.206 50.496 216.534 49.76C215.862 49.024 214.95 48.448 213.798 48.032C212.678 47.616 211.366 47.328 209.862 47.168C208.358 46.976 206.758 46.832 205.062 46.736C203.398 46.64 201.702 46.544 199.974 46.448C198.246 46.352 196.582 46.192 194.982 45.968C193.19 46.8 191.718 47.856 190.566 49.136C189.446 50.384 188.886 51.856 188.886 53.552C188.886 54.64 189.158 55.648 189.702 56.576C190.278 57.536 191.142 58.352 192.294 59.024C193.446 59.728 194.886 60.272 196.614 60.656C198.374 61.072 200.438 61.28 202.806 61.28C205.11 61.28 207.174 61.072 208.998 60.656C210.822 60.24 212.358 59.648 213.606 58.88C214.886 58.112 215.862 57.2 216.534 56.144C217.206 55.088 217.542 53.92 217.542 52.64ZM226.23 3.296V6.464C226.23 7.52 225.558 8.192 224.214 8.48L218.694 9.2C219.782 11.312 220.326 13.648 220.326 16.208C220.326 18.576 219.862 20.736 218.934 22.688C218.038 24.608 216.79 26.256 215.19 27.632C213.59 29.008 211.67 30.064 209.43 30.8C207.19 31.536 204.758 31.904 202.134 31.904C199.862 31.904 197.718 31.632 195.702 31.088C194.678 31.728 193.894 32.416 193.35 33.152C192.806 33.856 192.534 34.576 192.534 35.312C192.534 36.464 192.998 37.344 193.926 37.952C194.886 38.528 196.134 38.944 197.67 39.2C199.206 39.456 200.95 39.616 202.902 39.68C204.886 39.744 206.902 39.856 208.95 40.016C211.03 40.144 213.046 40.384 214.998 40.736C216.982 41.088 218.742 41.664 220.278 42.464C221.814 43.264 223.046 44.368 223.974 45.776C224.934 47.184 225.414 49.008 225.414 51.248C225.414 53.328 224.886 55.344 223.83 57.296C222.806 59.248 221.318 60.976 219.366 62.48C217.414 64.016 215.014 65.232 212.166 66.128C209.35 67.056 206.166 67.52 202.614 67.52C199.062 67.52 195.958 67.168 193.302 66.464C190.646 65.76 188.438 64.816 186.678 63.632C184.918 62.448 183.59 61.072 182.694 59.504C181.83 57.968 181.398 56.352 181.398 54.656C181.398 52.256 182.15 50.224 183.654 48.56C185.158 46.896 187.222 45.568 189.846 44.576C188.406 43.936 187.254 43.088 186.39 42.032C185.558 40.944 185.142 39.488 185.142 37.664C185.142 36.96 185.27 36.24 185.526 35.504C185.782 34.736 186.166 33.984 186.678 33.248C187.222 32.48 187.878 31.76 188.646 31.088C189.414 30.416 190.31 29.824 191.334 29.312C188.934 27.968 187.062 26.192 185.718 23.984C184.374 21.744 183.702 19.152 183.702 16.208C183.702 13.84 184.15 11.696 185.046 9.776C185.974 7.824 187.254 6.176 188.886 4.832C190.518 3.456 192.454 2.4 194.694 1.664C196.966 0.927996 199.446 0.559996 202.134 0.559996C204.246 0.559996 206.214 0.799995 208.038 1.27999C209.862 1.728 211.526 2.4 213.03 3.296H226.23ZM261.417 28.112C257.481 28.24 254.121 28.56 251.337 29.072C248.585 29.552 246.329 30.192 244.569 30.992C242.841 31.792 241.577 32.736 240.777 33.824C240.009 34.912 239.625 36.128 239.625 37.472C239.625 38.752 239.833 39.856 240.249 40.784C240.665 41.712 241.225 42.48 241.929 43.088C242.665 43.664 243.513 44.096 244.473 44.384C245.465 44.64 246.521 44.768 247.641 44.768C249.145 44.768 250.521 44.624 251.769 44.336C253.017 44.016 254.185 43.568 255.273 42.992C256.393 42.416 257.449 41.728 258.441 40.928C259.465 40.128 260.457 39.216 261.417 38.192V28.112ZM233.817 8.24C236.505 5.648 239.401 3.712 242.505 2.432C245.609 1.152 249.049 0.511999 252.825 0.511999C255.545 0.511999 257.961 0.959999 260.073 1.856C262.185 2.752 263.961 4 265.401 5.6C266.841 7.2 267.929 9.136 268.665 11.408C269.401 13.68 269.769 16.176 269.769 18.896V50H265.977C265.145 50 264.505 49.872 264.057 49.616C263.609 49.328 263.257 48.784 263.001 47.984L262.041 43.376C260.761 44.56 259.513 45.616 258.297 46.544C257.081 47.44 255.801 48.208 254.457 48.848C253.113 49.456 251.673 49.92 250.137 50.24C248.633 50.592 246.953 50.768 245.097 50.768C243.209 50.768 241.433 50.512 239.769 50C238.105 49.456 236.649 48.656 235.401 47.6C234.185 46.544 233.209 45.216 232.473 43.616C231.769 41.984 231.417 40.064 231.417 37.856C231.417 35.936 231.945 34.096 233.001 32.336C234.057 30.544 235.769 28.96 238.137 27.584C240.505 26.208 243.593 25.088 247.401 24.224C251.209 23.328 255.881 22.816 261.417 22.688V18.896C261.417 15.12 260.601 12.272 258.969 10.352C257.337 8.4 254.953 7.424 251.817 7.424C249.705 7.424 247.929 7.696 246.489 8.24C245.081 8.752 243.849 9.344 242.793 10.016C241.769 10.656 240.873 11.248 240.105 11.792C239.369 12.304 238.633 12.56 237.897 12.56C237.321 12.56 236.825 12.416 236.409 12.128C235.993 11.808 235.641 11.424 235.353 10.976L233.817 8.24ZM290.896 11.12C292.432 7.792 294.32 5.2 296.56 3.344C298.8 1.456 301.536 0.511999 304.768 0.511999C305.792 0.511999 306.768 0.623999 307.696 0.847998C308.656 1.072 309.504 1.424 310.24 1.904L309.616 8.288C309.424 9.088 308.944 9.488 308.176 9.488C307.728 9.488 307.072 9.392 306.208 9.2C305.344 9.008 304.368 8.912 303.28 8.912C301.744 8.912 300.368 9.136 299.152 9.584C297.968 10.032 296.896 10.704 295.936 11.6C295.008 12.464 294.16 13.552 293.392 14.864C292.656 16.144 291.984 17.616 291.376 19.28V50H282.784V1.376H287.68C288.608 1.376 289.248 1.552 289.6 1.904C289.952 2.256 290.192 2.864 290.32 3.728L290.896 11.12ZM336.28 0.607998C339.832 0.607998 343.032 1.2 345.88 2.384C348.728 3.568 351.16 5.248 353.176 7.424C355.192 9.6 356.728 12.24 357.784 15.344C358.872 18.416 359.416 21.856 359.416 25.664C359.416 29.504 358.872 32.96 357.784 36.032C356.728 39.104 355.192 41.728 353.176 43.904C351.16 46.08 348.728 47.76 345.88 48.944C343.032 50.096 339.832 50.672 336.28 50.672C332.696 50.672 329.464 50.096 326.584 48.944C323.736 47.76 321.304 46.08 319.288 43.904C317.272 41.728 315.72 39.104 314.632 36.032C313.576 32.96 313.048 29.504 313.048 25.664C313.048 21.856 313.576 18.416 314.632 15.344C315.72 12.24 317.272 9.6 319.288 7.424C321.304 5.248 323.736 3.568 326.584 2.384C329.464 1.2 332.696 0.607998 336.28 0.607998ZM336.28 44C341.08 44 344.664 42.4 347.032 39.2C349.4 35.968 350.584 31.472 350.584 25.712C350.584 19.92 349.4 15.408 347.032 12.176C344.664 8.944 341.08 7.328 336.28 7.328C333.848 7.328 331.72 7.744 329.896 8.576C328.104 9.408 326.6 10.608 325.384 12.176C324.2 13.744 323.304 15.68 322.696 17.984C322.12 20.256 321.832 22.832 321.832 25.712C321.832 31.472 323.016 35.968 325.384 39.2C327.784 42.4 331.416 44 336.28 44ZM398.572 9.392C398.188 10.096 397.596 10.448 396.796 10.448C396.316 10.448 395.772 10.272 395.164 9.92C394.556 9.568 393.804 9.184 392.908 8.768C392.044 8.32 391.004 7.92 389.788 7.568C388.572 7.184 387.132 6.992 385.468 6.992C384.028 6.992 382.732 7.184 381.58 7.568C380.428 7.92 379.436 8.416 378.604 9.056C377.804 9.696 377.18 10.448 376.732 11.312C376.316 12.144 376.108 13.056 376.108 14.048C376.108 15.296 376.46 16.336 377.164 17.168C377.9 18 378.86 18.72 380.044 19.328C381.228 19.936 382.572 20.48 384.076 20.96C385.58 21.408 387.116 21.904 388.684 22.448C390.284 22.96 391.836 23.536 393.34 24.176C394.844 24.816 396.188 25.616 397.372 26.576C398.556 27.536 399.5 28.72 400.204 30.128C400.94 31.504 401.308 33.168 401.308 35.12C401.308 37.36 400.908 39.44 400.108 41.36C399.308 43.248 398.124 44.896 396.556 46.304C394.988 47.68 393.068 48.768 390.796 49.568C388.524 50.368 385.9 50.768 382.924 50.768C379.532 50.768 376.46 50.224 373.708 49.136C370.956 48.016 368.62 46.592 366.7 44.864L368.716 41.6C368.972 41.184 369.276 40.864 369.628 40.64C369.98 40.416 370.428 40.304 370.972 40.304C371.548 40.304 372.156 40.528 372.796 40.976C373.436 41.424 374.204 41.92 375.1 42.464C376.028 43.008 377.148 43.504 378.46 43.952C379.772 44.4 381.404 44.624 383.356 44.624C385.02 44.624 386.476 44.416 387.724 44C388.972 43.552 390.012 42.96 390.844 42.224C391.676 41.488 392.284 40.64 392.668 39.68C393.084 38.72 393.292 37.696 393.292 36.608C393.292 35.264 392.924 34.16 392.188 33.296C391.484 32.4 390.54 31.648 389.356 31.04C388.172 30.4 386.812 29.856 385.276 29.408C383.772 28.928 382.22 28.432 380.62 27.92C379.052 27.408 377.5 26.832 375.964 26.192C374.46 25.52 373.116 24.688 371.932 23.696C370.748 22.704 369.788 21.488 369.052 20.048C368.348 18.576 367.996 16.8 367.996 14.72C367.996 12.864 368.38 11.088 369.148 9.392C369.916 7.664 371.036 6.16 372.508 4.88C373.98 3.568 375.788 2.528 377.932 1.76C380.076 0.991999 382.524 0.607998 385.276 0.607998C388.476 0.607998 391.34 1.12 393.868 2.144C396.428 3.136 398.636 4.512 400.492 6.272L398.572 9.392ZM438.136 28.112C434.2 28.24 430.84 28.56 428.056 29.072C425.304 29.552 423.048 30.192 421.288 30.992C419.56 31.792 418.296 32.736 417.496 33.824C416.728 34.912 416.344 36.128 416.344 37.472C416.344 38.752 416.552 39.856 416.968 40.784C417.384 41.712 417.944 42.48 418.648 43.088C419.384 43.664 420.232 44.096 421.192 44.384C422.184 44.64 423.24 44.768 424.36 44.768C425.864 44.768 427.24 44.624 428.488 44.336C429.736 44.016 430.904 43.568 431.992 42.992C433.112 42.416 434.168 41.728 435.16 40.928C436.184 40.128 437.176 39.216 438.136 38.192V28.112ZM410.536 8.24C413.224 5.648 416.12 3.712 419.224 2.432C422.328 1.152 425.768 0.511999 429.544 0.511999C432.264 0.511999 434.68 0.959999 436.792 1.856C438.904 2.752 440.68 4 442.12 5.6C443.56 7.2 444.648 9.136 445.384 11.408C446.12 13.68 446.488 16.176 446.488 18.896V50H442.696C441.864 50 441.224 49.872 440.776 49.616C440.328 49.328 439.976 48.784 439.72 47.984L438.76 43.376C437.48 44.56 436.232 45.616 435.016 46.544C433.8 47.44 432.52 48.208 431.176 48.848C429.832 49.456 428.392 49.92 426.856 50.24C425.352 50.592 423.672 50.768 421.816 50.768C419.928 50.768 418.152 50.512 416.488 50C414.824 49.456 413.368 48.656 412.12 47.6C410.904 46.544 409.928 45.216 409.192 43.616C408.488 41.984 408.136 40.064 408.136 37.856C408.136 35.936 408.664 34.096 409.72 32.336C410.776 30.544 412.488 28.96 414.856 27.584C417.224 26.208 420.312 25.088 424.12 24.224C427.928 23.328 432.6 22.816 438.136 22.688V18.896C438.136 15.12 437.32 12.272 435.688 10.352C434.056 8.4 431.672 7.424 428.536 7.424C426.424 7.424 424.648 7.696 423.208 8.24C421.8 8.752 420.568 9.344 419.512 10.016C418.488 10.656 417.592 11.248 416.824 11.792C416.088 12.304 415.352 12.56 414.616 12.56C414.04 12.56 413.544 12.416 413.128 12.128C412.712 11.808 412.36 11.424 412.072 10.976L410.536 8.24Z" fill="#64CCC5"/>
<path d="M8.14563 11.12L7.14865 11.1977L7.44656 15.0209L9.05358 11.5391L8.14563 11.12ZM13.8096 3.344L14.4477 4.11405L14.4541 4.10863L13.8096 3.344ZM24.9456 0.847998L24.711 1.82011L24.7184 1.82184L24.9456 0.847998ZM27.4896 1.904L28.4849 2.00128L28.5439 1.39768L28.0359 1.06638L27.4896 1.904ZM26.8656 8.288L27.838 8.52137L27.8542 8.45412L27.8609 8.38528L26.8656 8.288ZM23.4576 9.2L23.2407 10.1762L23.2407 10.1762L23.4576 9.2ZM16.4016 9.584L16.0559 8.64562L16.0477 8.64871L16.4016 9.584ZM13.1856 11.6L13.867 12.3319L13.8679 12.3311L13.1856 11.6ZM10.6416 14.864L9.77859 14.3588L9.77472 14.3655L10.6416 14.864ZM8.62563 19.28L7.68636 18.9368L7.62563 19.103V19.28H8.62563ZM8.62563 50V51H9.62563V50H8.62563ZM0.0336251 50H-0.966375V51H0.0336251V50ZM0.0336251 1.376V0.375999H-0.966375V1.376H0.0336251ZM6.84963 1.904L7.55673 1.19689L7.55673 1.19689L6.84963 1.904ZM7.56963 3.728L8.5666 3.65031L8.56391 3.61575L8.55883 3.58145L7.56963 3.728ZM9.05358 11.5391C10.5428 8.31247 12.3486 5.85321 14.4476 4.11402L13.1716 2.57398C10.7906 4.54679 8.82047 7.27153 7.23767 10.7009L9.05358 11.5391ZM14.4541 4.10863C16.4948 2.38863 18.9954 1.512 22.0176 1.512V-0.488001C18.5758 -0.488001 15.6045 0.52337 13.1652 2.57937L14.4541 4.10863ZM22.0176 1.512C22.9683 1.512 23.8652 1.61592 24.711 1.82008L25.1803 -0.124085C24.1701 -0.367921 23.115 -0.488001 22.0176 -0.488001V1.512ZM24.7184 1.82184C25.5786 2.02256 26.3161 2.33252 26.9434 2.74161L28.0359 1.06638C27.1912 0.515468 26.2326 0.12143 25.1729 -0.125844L24.7184 1.82184ZM26.4944 1.80671L25.8704 8.19072L27.8609 8.38528L28.4849 2.00128L26.4944 1.80671ZM25.8932 8.05462C25.8316 8.31133 25.7505 8.39559 25.7214 8.41978C25.6996 8.43799 25.6311 8.488 25.4256 8.488V10.488C25.9881 10.488 26.5437 10.338 27.0018 9.95622C27.4528 9.58041 27.7076 9.06467 27.838 8.52137L25.8932 8.05462ZM25.4256 8.488C25.0909 8.488 24.5221 8.41216 23.6746 8.22381L23.2407 10.1762C24.1211 10.3718 24.8643 10.488 25.4256 10.488V8.488ZM23.6746 8.22381C22.7253 8.01287 21.6747 7.912 20.5296 7.912V9.912C21.5606 9.912 22.4619 10.0031 23.2407 10.1762L23.6746 8.22381ZM20.5296 7.912C18.897 7.912 17.401 8.15009 16.0559 8.64565L16.7473 10.5223C17.8342 10.1219 19.0903 9.912 20.5296 9.912V7.912ZM16.0477 8.64871C14.7375 9.14449 13.5548 9.88752 12.5033 10.8689L13.8679 12.3311C14.7364 11.5205 15.6978 10.9195 16.7555 10.5193L16.0477 8.64871ZM12.5042 10.8681C11.4925 11.8101 10.5863 12.979 9.77861 14.3588L11.5046 15.3692C12.2329 14.125 13.0228 13.1179 13.867 12.3319L12.5042 10.8681ZM9.77472 14.3655C9.00523 15.7038 8.31024 17.2293 7.68636 18.9368L9.56489 19.6232C10.157 18.0027 10.806 16.5842 11.5085 15.3625L9.77472 14.3655ZM7.62563 19.28V50H9.62563V19.28H7.62563ZM8.62563 49H0.0336251V51H8.62563V49ZM1.03363 50V1.376H-0.966375V50H1.03363ZM0.0336251 2.376H4.92963V0.375999H0.0336251V2.376ZM4.92963 2.376C5.79828 2.376 6.08559 2.55418 6.14252 2.61111L7.55673 1.19689C6.90966 0.549819 5.91697 0.375999 4.92963 0.375999V2.376ZM6.14252 2.6111C6.26549 2.73408 6.46278 3.08048 6.58042 3.87455L8.55883 3.58145C8.42047 2.64752 8.13776 1.77792 7.55673 1.19689L6.14252 2.6111ZM6.57265 3.80568L7.14865 11.1977L9.1426 11.0423L8.5666 3.65031L6.57265 3.80568ZM60.6044 28.112H61.6044V27.0789L60.5719 27.1125L60.6044 28.112ZM50.5244 29.072L50.6962 30.0572L50.7053 30.0555L50.5244 29.072ZM43.7564 30.992L43.3426 30.0816L43.3363 30.0845L43.7564 30.992ZM39.9644 33.824L39.1587 33.2316L39.153 33.2394L39.1474 33.2473L39.9644 33.824ZM39.4364 40.784L38.5239 41.1931L38.5239 41.1931L39.4364 40.784ZM41.1164 43.088L40.4628 43.8448L40.481 43.8606L40.5001 43.8755L41.1164 43.088ZM43.6604 44.384L43.373 45.3418L43.3917 45.3474L43.4105 45.3523L43.6604 44.384ZM50.9564 44.336L51.1812 45.3104L51.193 45.3077L51.2048 45.3047L50.9564 44.336ZM54.4604 42.992L54.003 42.1026L53.9925 42.1082L54.4604 42.992ZM57.6284 40.928L57.0127 40.14L57.0066 40.1447L57.0006 40.1496L57.6284 40.928ZM60.6044 38.192L61.3339 38.8759L61.6044 38.5874V38.192H60.6044ZM33.0044 8.24L32.3102 7.52015L31.7544 8.05617L32.1324 8.72953L33.0044 8.24ZM41.6924 2.432L41.3111 1.50752L41.3111 1.50752L41.6924 2.432ZM59.2604 1.856L59.6509 0.935417L59.6509 0.935417L59.2604 1.856ZM64.5884 5.6L65.3317 4.93103L65.3317 4.93103L64.5884 5.6ZM67.8524 11.408L66.901 11.7162L66.901 11.7162L67.8524 11.408ZM68.9564 50V51H69.9564V50H68.9564ZM63.2444 49.616L62.7036 50.4572L62.7256 50.4713L62.7482 50.4842L63.2444 49.616ZM62.1884 47.984L61.2094 48.188L61.22 48.2391L61.236 48.2888L62.1884 47.984ZM61.2284 43.376L62.2074 43.172L61.8469 41.4417L60.5493 42.6419L61.2284 43.376ZM57.4844 46.544L58.0776 47.3491L58.0844 47.3441L58.091 47.339L57.4844 46.544ZM53.6444 48.848L54.0565 49.7591L54.0655 49.7551L54.0743 49.7509L53.6444 48.848ZM49.3244 50.24L49.1204 49.261L49.1084 49.2635L49.0965 49.2663L49.3244 50.24ZM38.9564 50L38.6456 50.9505L38.6539 50.9532L38.6623 50.9558L38.9564 50ZM34.5884 47.6L33.9326 48.3551L33.9424 48.3634L34.5884 47.6ZM31.6604 43.616L30.7422 44.0121L30.7469 44.0231L30.7519 44.0339L31.6604 43.616ZM32.1884 32.336L33.0459 32.8505L33.0499 32.8437L32.1884 32.336ZM37.3244 27.584L37.8268 28.4486L37.8268 28.4486L37.3244 27.584ZM46.5884 24.224L46.8097 25.1992L46.8174 25.1974L46.5884 24.224ZM60.6044 22.688L60.6275 23.6877L61.6044 23.6651V22.688H60.6044ZM58.1564 10.352L57.3892 10.9934L57.3944 10.9996L58.1564 10.352ZM45.6764 8.24L46.0181 9.17986L46.0298 9.17547L45.6764 8.24ZM41.9804 10.016L42.5104 10.864L42.5173 10.8597L41.9804 10.016ZM39.2924 11.792L39.8635 12.6129L39.8704 12.608L39.2924 11.792ZM35.5964 12.128L34.9867 12.9206L35.0065 12.9359L35.0272 12.9502L35.5964 12.128ZM34.5404 10.976L33.6684 11.4655L33.683 11.4916L33.6992 11.5168L34.5404 10.976ZM60.5719 27.1125C56.6038 27.2416 53.1913 27.5648 50.3435 28.0885L50.7053 30.0555C53.4255 29.5552 56.733 29.2384 60.6369 29.1115L60.5719 27.1125ZM50.3526 28.0869C47.5506 28.5756 45.2056 29.2348 43.3426 30.0816L44.1702 31.9024C45.8272 31.1492 47.9941 30.5284 50.6962 30.0571L50.3526 28.0869ZM43.3363 30.0845C41.5145 30.928 40.0912 31.9634 39.1587 33.2316L40.77 34.4164C41.4375 33.5086 42.5423 32.656 44.1765 31.8995L43.3363 30.0845ZM39.1474 33.2473C38.2591 34.5057 37.8124 35.9235 37.8124 37.472H39.8124C39.8124 36.3325 40.1336 35.3183 40.7813 34.4007L39.1474 33.2473ZM37.8124 37.472C37.8124 38.8577 38.0373 40.1077 38.5239 41.1931L40.3489 40.3749C40.0034 39.6043 39.8124 38.6463 39.8124 37.472H37.8124ZM38.5239 41.1931C38.994 42.2419 39.6381 43.1326 40.4628 43.8448L41.77 42.3312C41.1867 41.8274 40.7107 41.1821 40.3489 40.3749L38.5239 41.1931ZM40.5001 43.8755C41.3411 44.5337 42.3024 45.0206 43.373 45.3418L43.9477 43.4262C43.0983 43.1714 42.3637 42.7943 41.7327 42.3005L40.5001 43.8755ZM43.4105 45.3523C44.4913 45.6312 45.6318 45.768 46.8284 45.768V43.768C45.7849 43.768 44.8134 43.6488 43.9103 43.4157L43.4105 45.3523ZM46.8284 45.768C48.3953 45.768 49.848 45.6181 51.1812 45.3104L50.7315 43.3616C49.5687 43.6299 48.2694 43.768 46.8284 43.768V45.768ZM51.2048 45.3047C52.5255 44.966 53.7675 44.4903 54.9283 43.8758L53.9925 42.1082C52.9772 42.6457 51.8833 43.066 50.708 43.3673L51.2048 45.3047ZM54.9177 43.8813C56.0989 43.2738 57.2119 42.5486 58.2561 41.7064L57.0006 40.1496C56.0609 40.9074 55.0619 41.5582 54.003 42.1027L54.9177 43.8813ZM58.244 41.716C59.3117 40.8819 60.3415 39.9346 61.3339 38.8759L59.8748 37.5081C58.9473 38.4974 57.9931 39.3741 57.0127 40.14L58.244 41.716ZM61.6044 38.192V28.112H59.6044V38.192H61.6044ZM33.6985 8.95984C36.3061 6.44535 39.0982 4.58346 42.0736 3.35648L41.3111 1.50752C38.0786 2.84054 35.0786 4.85065 32.3102 7.52015L33.6985 8.95984ZM42.0736 3.35648C45.0425 2.13219 48.3509 1.512 52.0124 1.512V-0.488001C48.1218 -0.488001 44.5502 0.171812 41.3111 1.50752L42.0736 3.35648ZM52.0124 1.512C54.6227 1.512 56.9021 1.94178 58.8698 2.77658L59.6509 0.935417C57.3947 -0.0217771 54.8421 -0.488001 52.0124 -0.488001V1.512ZM58.8698 2.77658C60.8563 3.61933 62.5092 4.78467 63.8451 6.26896L65.3317 4.93103C63.7875 3.21533 61.8885 1.88467 59.6509 0.935417L58.8698 2.77658ZM63.8451 6.26896C65.1814 7.75373 66.2035 9.563 66.901 11.7162L68.8037 11.0998C68.0292 8.70899 66.8754 6.64627 65.3317 4.93103L63.8451 6.26896ZM66.901 11.7162C67.6007 13.8759 67.9564 16.2663 67.9564 18.896H69.9564C69.9564 16.0857 69.5761 13.4841 68.8037 11.0998L66.901 11.7162ZM67.9564 18.896V50H69.9564V18.896H67.9564ZM68.9564 49H65.1644V51H68.9564V49ZM65.1644 49C64.4106 49 63.9717 48.8799 63.7405 48.7478L62.7482 50.4842C63.413 50.8641 64.2541 51 65.1644 51V49ZM63.7851 48.7748C63.6174 48.667 63.3645 48.3783 63.1408 47.6792L61.236 48.2888C61.5242 49.1897 61.9754 49.989 62.7036 50.4572L63.7851 48.7748ZM63.1674 47.78L62.2074 43.172L60.2494 43.58L61.2094 48.188L63.1674 47.78ZM60.5493 42.6419C59.2894 43.8074 58.0655 44.8426 56.8777 45.749L58.091 47.339C59.3353 46.3894 60.6074 45.3126 61.9074 44.1101L60.5493 42.6419ZM56.8912 45.7389C55.7256 46.5978 54.5002 47.3329 53.2144 47.9451L54.0743 49.7509C55.4766 49.0831 56.8111 48.2822 58.0776 47.3491L56.8912 45.7389ZM53.2322 47.9369C51.959 48.5129 50.5893 48.955 49.1204 49.261L49.5283 51.219C51.1315 50.885 52.6417 50.3991 54.0565 49.7591L53.2322 47.9369ZM49.0965 49.2663C47.6804 49.5977 46.0785 49.768 44.2844 49.768V51.768C46.2023 51.768 47.9604 51.5863 49.5523 51.2137L49.0965 49.2663ZM44.2844 49.768C42.4877 49.768 40.8115 49.5245 39.2505 49.0442L38.6623 50.9558C40.4293 51.4995 42.3051 51.768 44.2844 51.768V49.768ZM39.2671 49.0495C37.7171 48.5428 36.3769 47.8034 35.2343 46.8366L33.9424 48.3634C35.2959 49.5086 36.8677 50.3692 38.6456 50.9505L39.2671 49.0495ZM35.2441 46.845C34.145 45.8905 33.2511 44.6812 32.5689 43.1981L30.7519 44.0339C31.5416 45.7508 32.5997 47.1975 33.9327 48.355L35.2441 46.845ZM32.5786 43.2199C31.9399 41.7394 31.6044 39.9598 31.6044 37.856H29.6044C29.6044 40.1682 29.9728 42.2286 30.7422 44.0121L32.5786 43.2199ZM31.6044 37.856C31.6044 36.1298 32.0764 34.4662 33.0459 32.8505L31.3309 31.8215C30.1883 33.7258 29.6044 35.7422 29.6044 37.856H31.6044ZM33.0499 32.8437C33.9955 31.2391 35.5616 29.7649 37.8268 28.4486L36.822 26.7194C34.3511 28.1551 32.4932 29.8489 31.3268 31.8283L33.0499 32.8437ZM37.8268 28.4486C40.0787 27.1401 43.0621 26.0495 46.8096 25.1992L46.3671 23.2488C42.4987 24.1265 39.3061 25.2759 36.822 26.7194L37.8268 28.4486ZM46.8174 25.1974C50.5365 24.3223 55.1347 23.8147 60.6275 23.6877L60.5813 21.6883C55.002 21.8173 50.2563 22.3337 46.3593 23.2506L46.8174 25.1974ZM61.6044 22.688V18.896H59.6044V22.688H61.6044ZM61.6044 18.896C61.6044 14.997 60.7646 11.8764 58.9183 9.70435L57.3944 10.9996C58.8122 12.6676 59.6044 15.243 59.6044 18.896H61.6044ZM58.9236 9.71058C57.0581 7.47928 54.3613 6.424 51.0044 6.424V8.424C53.9194 8.424 55.9907 9.32072 57.3892 10.9934L58.9236 9.71058ZM51.0044 6.424C48.8135 6.424 46.9094 6.70522 45.323 7.30452L46.0298 9.17547C47.3234 8.68677 48.9713 8.424 51.0044 8.424V6.424ZM45.3346 7.3002C43.8712 7.83236 42.5715 8.45455 41.4435 9.17234L42.5173 10.8597C43.5013 10.2334 44.6655 9.67164 46.0181 9.17979L45.3346 7.3002ZM41.4504 9.168C40.4144 9.81551 39.5017 10.4183 38.7144 10.976L39.8704 12.608C40.619 12.0777 41.4984 11.4965 42.5104 10.864L41.4504 9.168ZM38.7213 10.9711C38.1158 11.3923 37.5752 11.56 37.0844 11.56V13.56C38.0655 13.56 38.9969 13.2157 39.8634 12.6129L38.7213 10.9711ZM37.0844 11.56C36.6826 11.56 36.3919 11.4625 36.1656 11.3058L35.0272 12.9502C35.6329 13.3695 36.3341 13.56 37.0844 13.56V11.56ZM36.2061 11.3354C35.8825 11.0865 35.6084 10.7881 35.3816 10.4352L33.6992 11.5168C34.0484 12.0599 34.4783 12.5295 34.9867 12.9206L36.2061 11.3354ZM35.4124 10.4865L33.8764 7.75046L32.1324 8.72953L33.6684 11.4655L35.4124 10.4865ZM90.0351 8.432L89.0431 8.55825L89.3203 10.7359L90.7814 9.09761L90.0351 8.432ZM93.3951 5.216L94.0249 5.99275L94.0249 5.99275L93.3951 5.216ZM97.1391 2.768L97.595 3.65808L97.6031 3.65383L97.1391 2.768ZM101.363 1.184L101.596 2.15657L101.603 2.1548L101.611 2.15291L101.363 1.184ZM113.219 1.952L112.813 2.86581L112.822 2.86967L112.83 2.87336L113.219 1.952ZM118.307 5.696L117.535 6.33171L117.542 6.33994L117.549 6.34804L118.307 5.696ZM121.427 11.504L122.382 11.208L122.382 11.208L121.427 11.504ZM122.483 50V51H123.483V50H122.483ZM113.891 50H112.891V51H113.891V50ZM111.347 10.496L110.571 11.1266L110.576 11.1332L110.582 11.1398L111.347 10.496ZM96.6111 9.248L96.1287 8.37203L96.1233 8.37505L96.6111 9.248ZM90.5631 14.192L89.817 13.5262L89.5631 13.8107V14.192H90.5631ZM90.5631 50V51H91.5631V50H90.5631ZM81.9711 50H80.9711V51H81.9711V50ZM81.9711 1.376V0.375999H80.9711V1.376H81.9711ZM89.3631 3.152L90.3551 3.02574L90.348 2.97012L90.3348 2.91564L89.3631 3.152ZM90.7814 9.09761C91.8031 7.9521 92.8843 6.91755 94.0249 5.99275L92.7653 4.43924C91.5379 5.43444 90.3792 6.54389 89.2888 7.76638L90.7814 9.09761ZM94.0249 5.99275C95.1569 5.07496 96.3468 4.29736 97.595 3.65804L96.6833 1.87796C95.3074 2.58264 94.0014 3.43704 92.7653 4.43924L94.0249 5.99275ZM97.6031 3.65383C98.8741 2.98811 100.204 2.48929 101.596 2.15657L101.131 0.211417C99.5779 0.582701 98.0922 1.13989 96.6751 1.88217L97.6031 3.65383ZM101.611 2.15291C103.025 1.79173 104.557 1.608 106.211 1.608V-0.392002C104.409 -0.392002 102.709 -0.191739 101.116 0.215078L101.611 2.15291ZM106.211 1.608C108.755 1.608 110.948 2.037 112.813 2.86581L113.625 1.03819C111.458 0.0749956 108.979 -0.392002 106.211 -0.392002V1.608ZM112.83 2.87336C114.737 3.67785 116.299 4.83095 117.535 6.33171L119.079 5.06029C117.627 3.29704 115.797 1.95414 113.608 1.03063L112.83 2.87336ZM117.549 6.34804C118.825 7.83167 119.803 9.64227 120.472 11.8L122.382 11.208C121.643 8.82172 120.541 6.76033 119.065 5.04396L117.549 6.34804ZM120.472 11.8C121.142 13.9624 121.483 16.3729 121.483 19.04H123.483C123.483 16.203 123.12 13.5895 122.382 11.208L120.472 11.8ZM121.483 19.04V50H123.483V19.04H121.483ZM122.483 49H113.891V51H122.483V49ZM114.891 50V19.04H112.891V50H114.891ZM114.891 19.04C114.891 15.2171 114.01 12.1085 112.112 9.85224L110.582 11.1398C112.076 12.9155 112.891 15.5029 112.891 19.04H114.891ZM112.123 9.86541C110.216 7.51774 107.344 6.424 103.715 6.424V8.424C106.935 8.424 109.15 9.37825 110.571 11.1266L112.123 9.86541ZM103.715 6.424C101.019 6.424 98.4849 7.07443 96.1287 8.37205L97.0935 10.1239C99.1533 8.98957 101.355 8.424 103.715 8.424V6.424ZM96.1233 8.37505C93.8395 9.65128 91.7383 11.373 89.817 13.5262L91.3093 14.8578C93.0999 12.851 95.0307 11.2767 97.0989 10.1209L96.1233 8.37505ZM89.5631 14.192V50H91.5631V14.192H89.5631ZM90.5631 49H81.9711V51H90.5631V49ZM82.9711 50V1.376H80.9711V50H82.9711ZM81.9711 2.376H87.1071V0.375999H81.9711V2.376ZM87.1071 2.376C87.5524 2.376 87.8079 2.48238 87.9646 2.60574C88.1215 2.72926 88.2857 2.95356 88.3915 3.38835L90.3348 2.91564C90.1526 2.16644 89.7968 1.50273 89.2017 1.03426C88.6064 0.565614 87.8779 0.375999 87.1071 0.375999V2.376ZM88.3711 3.27825L89.0431 8.55825L91.0271 8.30574L90.3551 3.02574L88.3711 3.27825ZM157.006 25.52L156.663 24.5809L156.663 24.5809L157.006 25.52ZM162.334 20.432L163.27 20.7859L163.273 20.7777L162.334 20.432ZM160.27 9.344L159.57 10.0575L159.576 10.0636L160.27 9.344ZM144.526 9.344L143.832 8.62435L143.826 8.63055L144.526 9.344ZM142.51 20.432L141.572 20.7777L141.578 20.7928L141.584 20.8077L142.51 20.432ZM147.886 25.52L148.23 24.5809L148.23 24.5809L147.886 25.52ZM166.846 49.76L166.108 50.4343L166.108 50.4343L166.846 49.76ZM164.11 48.032L163.762 48.9695L163.771 48.9726L164.11 48.032ZM160.174 47.168L160.048 48.1599L160.058 48.1613L160.069 48.1624L160.174 47.168ZM155.374 46.736L155.317 47.7343L155.318 47.7344L155.374 46.736ZM150.286 46.448L150.231 47.4465L150.231 47.4465L150.286 46.448ZM145.294 45.968L145.433 44.9777L145.141 44.9368L144.873 45.061L145.294 45.968ZM140.878 49.136L140.135 48.467L140.134 48.4681L140.878 49.136ZM140.014 56.576L139.152 57.0817L139.157 57.0905L140.014 56.576ZM142.606 59.024L143.128 58.1707L143.119 58.1654L143.11 58.1602L142.606 59.024ZM146.926 60.656L147.156 59.6827L147.143 59.6798L146.926 60.656ZM159.31 60.656L159.533 61.631L159.533 61.631L159.31 60.656ZM163.918 58.88L163.404 58.0225L163.394 58.0283L163.918 58.88ZM166.846 56.144L166.003 55.6071L166.003 55.6071L166.846 56.144ZM176.542 3.296H177.542V2.296H176.542V3.296ZM174.526 8.48L174.656 9.4716L174.696 9.46633L174.736 9.4578L174.526 8.48ZM169.006 9.2L168.877 8.2084L167.466 8.39251L168.117 9.65796L169.006 9.2ZM169.246 22.688L168.343 22.2586L168.34 22.2651L169.246 22.688ZM165.502 27.632L164.85 26.8738L164.85 26.8738L165.502 27.632ZM146.014 31.088L146.275 30.1225L145.854 30.009L145.484 30.24L146.014 31.088ZM143.662 33.152L144.454 33.7634L144.46 33.755L144.467 33.7464L143.662 33.152ZM144.238 37.952L143.69 38.7885L143.707 38.7993L143.724 38.8095L144.238 37.952ZM153.214 39.68L153.182 40.6795L153.182 40.6795L153.214 39.68ZM159.262 40.016L159.184 41.013L159.193 41.0136L159.201 41.0141L159.262 40.016ZM165.31 40.736L165.133 41.7201L165.136 41.7206L165.31 40.736ZM174.286 45.776L173.451 46.3263L173.456 46.3329L173.46 46.3393L174.286 45.776ZM174.142 57.296L173.263 56.8201L173.257 56.8315L174.142 57.296ZM169.678 62.48L169.068 61.6878L169.06 61.6941L169.678 62.48ZM162.478 66.128L162.178 65.174L162.165 65.1782L162.478 66.128ZM143.614 66.464L143.358 67.4306L143.358 67.4306L143.614 66.464ZM136.99 63.632L136.432 64.4617L136.432 64.4617L136.99 63.632ZM133.006 59.504L132.135 59.9943L132.138 60.0001L133.006 59.504ZM133.966 48.56L134.708 49.2305L134.708 49.2305L133.966 48.56ZM140.158 44.576L140.512 45.5114L142.789 44.6507L140.565 43.6622L140.158 44.576ZM136.702 42.032L135.908 42.6394L135.918 42.6525L135.928 42.6652L136.702 42.032ZM135.838 35.504L136.783 35.8325L136.787 35.8202L135.838 35.504ZM136.99 33.248L136.174 32.67L136.169 32.6769L136.99 33.248ZM141.646 29.312L142.094 30.2064L143.782 29.362L142.135 28.4395L141.646 29.312ZM136.03 23.984L135.173 24.4985L135.176 24.5039L136.03 23.984ZM135.358 9.776L134.455 9.34663L134.452 9.35311L135.358 9.776ZM139.198 4.832L139.834 5.60398L139.843 5.59652L139.198 4.832ZM145.006 1.664L144.698 0.712658L144.694 0.713964L145.006 1.664ZM158.35 1.27999L158.096 2.24707L158.104 2.24917L158.112 2.25113L158.35 1.27999ZM163.342 3.296L162.831 4.1551L163.067 4.296H163.342V3.296ZM152.446 27.24C154.265 27.24 155.905 26.9877 157.35 26.4591L156.663 24.5809C155.483 25.0123 154.084 25.24 152.446 25.24V27.24ZM157.35 26.4591C158.777 25.9371 160.005 25.1958 161.013 24.2238L159.624 22.7842C158.84 23.5402 157.86 24.1429 156.663 24.5809L157.35 26.4591ZM161.013 24.2238C162.017 23.2554 162.77 22.1058 163.27 20.7859L161.399 20.0781C161.003 21.1262 160.412 22.0246 159.624 22.7842L161.013 24.2238ZM163.273 20.7777C163.766 19.4394 164.006 17.9929 164.006 16.448H162.006C162.006 17.7831 161.799 18.9926 161.396 20.0863L163.273 20.7777ZM164.006 16.448C164.006 13.2518 163.018 10.6057 160.965 8.62438L159.576 10.0636C161.171 11.6023 162.006 13.6922 162.006 16.448H164.006ZM160.971 8.63055C158.933 6.62844 156.035 5.704 152.446 5.704V7.704C155.706 7.704 158.024 8.53955 159.57 10.0574L160.971 8.63055ZM152.446 5.704C148.827 5.704 145.902 6.62738 143.832 8.62438L145.221 10.0636C146.799 8.54061 149.153 7.704 152.446 7.704V5.704ZM143.826 8.63055C141.807 10.613 140.838 13.2571 140.838 16.448H142.838C142.838 13.6869 143.662 11.595 145.227 10.0574L143.826 8.63055ZM140.838 16.448C140.838 17.9929 141.079 19.4394 141.572 20.7777L143.449 20.0863C143.046 18.9926 142.838 17.7831 142.838 16.448H140.838ZM141.584 20.8077C142.115 22.1179 142.881 23.2601 143.88 24.2238L145.269 22.7842C144.476 22.0199 143.866 21.1141 143.437 20.0563L141.584 20.8077ZM143.88 24.2238C144.888 25.1958 146.116 25.9371 147.543 26.4591L148.23 24.5809C147.033 24.1429 146.053 23.5402 145.269 22.7842L143.88 24.2238ZM147.543 26.4591C148.987 26.9877 150.628 27.24 152.446 27.24V25.24C150.809 25.24 149.409 25.0123 148.23 24.5809L147.543 26.4591ZM168.854 52.64C168.854 51.2562 168.456 50.0397 167.585 49.0857L166.108 50.4343C166.581 50.9523 166.854 51.6558 166.854 52.64H168.854ZM167.585 49.0857C166.781 48.2055 165.72 47.5501 164.45 47.0914L163.771 48.9726C164.805 49.3459 165.568 49.8425 166.108 50.4343L167.585 49.0857ZM164.459 47.0946C163.243 46.6431 161.846 46.3402 160.28 46.1736L160.069 48.1624C161.511 48.3158 162.738 48.5889 163.762 48.9694L164.459 47.0946ZM160.301 46.1761C158.771 45.9807 157.148 45.8348 155.431 45.7376L155.318 47.7344C156.993 47.8292 158.57 47.9713 160.048 48.1599L160.301 46.1761ZM155.432 45.7377C153.767 45.6416 152.071 45.5456 150.342 45.4495L150.231 47.4465C151.958 47.5424 153.654 47.6384 155.317 47.7343L155.432 45.7377ZM150.342 45.4495C148.64 45.355 147.004 45.1975 145.433 44.9777L145.156 46.9583C146.785 47.1865 148.477 47.349 150.231 47.4465L150.342 45.4495ZM144.873 45.061C142.977 45.9415 141.39 47.0731 140.135 48.467L141.622 49.805C142.671 48.6389 144.028 47.6585 145.715 46.875L144.873 45.061ZM140.134 48.4681C138.847 49.9019 138.198 51.6126 138.198 53.552H140.198C140.198 52.0994 140.669 50.8661 141.623 49.8039L140.134 48.4681ZM138.198 53.552C138.198 54.8156 138.517 55.9985 139.152 57.0817L140.877 56.0703C140.424 55.2975 140.198 54.4644 140.198 53.552H138.198ZM139.157 57.0905C139.835 58.2201 140.833 59.1472 142.103 59.8878L143.11 58.1602C142.076 57.5568 141.346 56.8519 140.872 56.0615L139.157 57.0905ZM142.085 59.8773C143.355 60.6535 144.905 61.2313 146.709 61.6322L147.143 59.6798C145.491 59.3127 144.162 58.8025 143.128 58.1707L142.085 59.8773ZM146.696 61.6292C148.551 62.0675 150.695 62.28 153.118 62.28V60.28C150.805 60.28 148.822 60.0765 147.156 59.6828L146.696 61.6292ZM153.118 62.28C155.481 62.28 157.621 62.0669 159.533 61.631L159.088 59.681C157.351 60.0771 155.364 60.28 153.118 60.28V62.28ZM159.533 61.631C161.435 61.197 163.08 60.5703 164.442 59.7317L163.394 58.0283C162.261 58.7257 160.833 59.283 159.088 59.681L159.533 61.631ZM164.433 59.7375C165.821 58.9049 166.92 57.8908 167.69 56.6809L166.003 55.6071C165.429 56.5092 164.576 57.3191 163.404 58.0225L164.433 59.7375ZM167.69 56.6809C168.467 55.4606 168.854 54.1056 168.854 52.64H166.854C166.854 53.7344 166.57 54.7154 166.003 55.6071L167.69 56.6809ZM175.542 3.296V6.464H177.542V3.296H175.542ZM175.542 6.464C175.542 6.75908 175.458 6.9261 175.331 7.05289C175.18 7.20452 174.88 7.38148 174.317 7.50219L174.736 9.4578C175.517 9.29051 176.225 8.98748 176.745 8.4671C177.291 7.9219 177.542 7.22491 177.542 6.464H175.542ZM174.397 7.4884L168.877 8.2084L169.136 10.1916L174.656 9.4716L174.397 7.4884ZM168.117 9.65796C169.127 11.6175 169.638 13.7947 169.638 16.208H171.638C171.638 13.5013 171.062 11.0065 169.895 8.74204L168.117 9.65796ZM169.638 16.208C169.638 18.4418 169.202 20.4532 168.343 22.2586L170.15 23.1174C171.147 21.0188 171.638 18.7101 171.638 16.208H169.638ZM168.34 22.2651C167.504 24.0571 166.342 25.5907 164.85 26.8738L166.154 28.3902C167.862 26.9213 169.197 25.1589 170.153 23.1109L168.34 22.2651ZM164.85 26.8738C163.361 28.1547 161.56 29.1502 159.43 29.85L160.055 31.75C162.405 30.9778 164.444 29.8613 166.154 28.3902L164.85 26.8738ZM159.43 29.85C157.302 30.5494 154.976 30.904 152.446 30.904V32.904C155.165 32.904 157.703 32.5226 160.055 31.75L159.43 29.85ZM152.446 30.904C150.255 30.904 148.199 30.6417 146.275 30.1225L145.754 32.0535C147.862 32.6223 150.094 32.904 152.446 32.904V30.904ZM145.484 30.24C144.386 30.9264 143.497 31.694 142.858 32.5576L144.467 33.7464C144.916 33.138 145.595 32.5295 146.544 31.936L145.484 30.24ZM142.871 32.5406C142.221 33.382 141.846 34.3114 141.846 35.312H143.846C143.846 34.8406 144.016 34.33 144.454 33.7634L142.871 32.5406ZM141.846 35.312C141.846 36.7856 142.468 37.9873 143.69 38.7885L144.786 37.1155C144.153 36.7007 143.846 36.1424 143.846 35.312H141.846ZM143.724 38.8095C144.825 39.4699 146.203 39.9173 147.818 40.1864L148.147 38.2136C146.69 37.9707 145.572 37.5861 144.753 37.0945L143.724 38.8095ZM147.818 40.1864C149.407 40.4512 151.196 40.6144 153.182 40.6795L153.247 38.6805C151.329 38.6176 149.63 38.4608 148.147 38.2136L147.818 40.1864ZM153.182 40.6795C155.15 40.743 157.151 40.8541 159.184 41.013L159.34 39.019C157.278 38.8579 155.246 38.745 153.247 38.6805L153.182 40.6795ZM159.201 41.0141C161.244 41.1398 163.221 41.3754 165.133 41.7201L165.488 39.7519C163.496 39.3926 161.441 39.1482 159.324 39.0179L159.201 41.0141ZM165.136 41.7206C167.036 42.0577 168.696 42.6049 170.128 43.3509L171.052 41.5771C169.413 40.7231 167.553 40.1183 165.485 39.7514L165.136 41.7206ZM170.128 43.3509C171.518 44.0745 172.62 45.0644 173.451 46.3263L175.121 45.2257C174.097 43.6716 172.735 42.4535 171.052 41.5771L170.128 43.3509ZM173.46 46.3393C174.276 47.5363 174.726 49.1466 174.726 51.248H176.726C176.726 48.8694 176.217 46.8317 175.113 45.2127L173.46 46.3393ZM174.726 51.248C174.726 53.1507 174.245 55.0042 173.263 56.8202L175.022 57.7718C176.152 55.6838 176.726 53.5053 176.726 51.248H174.726ZM173.257 56.8315C172.307 58.6414 170.919 60.2615 169.068 61.6879L170.289 63.2721C172.341 61.6905 173.929 59.8546 175.028 57.7605L173.257 56.8315ZM169.06 61.6941C167.22 63.1419 164.934 64.3073 162.178 65.1741L162.778 67.0819C165.719 66.1567 168.233 64.8901 170.297 63.2659L169.06 61.6941ZM162.165 65.1782C159.468 66.0671 156.392 66.52 152.926 66.52V68.52C156.564 68.52 159.857 68.0449 162.791 67.0778L162.165 65.1782ZM152.926 66.52C149.437 66.52 146.423 66.1739 143.871 65.4974L143.358 67.4306C146.118 68.1621 149.312 68.52 152.926 68.52V66.52ZM143.871 65.4974C141.292 64.8139 139.194 63.9089 137.549 62.8023L136.432 64.4617C138.307 65.7231 140.625 66.7061 143.358 67.4306L143.871 65.4974ZM137.549 62.8023C135.894 61.6892 134.682 60.4209 133.875 59.0079L132.138 60.0001C133.123 61.7231 134.567 63.2068 136.432 64.4617L137.549 62.8023ZM133.878 59.0137C133.095 57.6213 132.71 56.1734 132.71 54.656H130.71C130.71 56.5306 131.19 58.3147 132.135 59.9943L133.878 59.0137ZM132.71 54.656C132.71 52.4849 133.383 50.6972 134.708 49.2305L133.225 47.8895C131.542 49.7508 130.71 52.0271 130.71 54.656H132.71ZM134.708 49.2305C136.082 47.7103 138 46.461 140.512 45.5114L139.805 43.6406C137.069 44.675 134.858 46.0817 133.225 47.8895L134.708 49.2305ZM140.565 43.6622C139.245 43.0758 138.227 42.3163 137.476 41.3988L135.928 42.6652C136.906 43.8597 138.192 44.7962 139.752 45.4898L140.565 43.6622ZM137.497 41.4245C136.836 40.5609 136.454 39.341 136.454 37.664H134.454C134.454 39.635 134.904 41.3271 135.908 42.6394L137.497 41.4245ZM136.454 37.664C136.454 37.0831 136.56 36.4741 136.783 35.8325L134.894 35.1755C134.605 36.0059 134.454 36.8369 134.454 37.664H136.454ZM136.787 35.8202C137.01 35.152 137.348 34.485 137.811 33.8191L136.169 32.6769C135.609 33.483 135.179 34.32 134.89 35.1878L136.787 35.8202ZM137.806 33.826C138.301 33.1273 138.903 32.4651 139.617 31.8406L138.3 30.3354C137.478 31.0549 136.767 31.8327 136.174 32.67L137.806 33.826ZM139.617 31.8406C140.314 31.231 141.137 30.6849 142.094 30.2064L141.199 28.4176C140.108 28.9631 139.139 29.601 138.3 30.3354L139.617 31.8406ZM142.135 28.4395C139.875 27.174 138.133 25.5156 136.885 23.4641L135.176 24.5039C136.615 26.8684 138.618 28.762 141.158 30.1845L142.135 28.4395ZM136.888 23.4695C135.649 21.4039 135.014 18.9943 135.014 16.208H133.014C133.014 19.3097 133.724 22.084 135.173 24.4985L136.888 23.4695ZM135.014 16.208C135.014 13.9688 135.437 11.9716 136.265 10.1989L134.452 9.35311C133.487 11.4204 133.014 13.7112 133.014 16.208H135.014ZM136.262 10.2054C137.128 8.38272 138.318 6.8526 139.834 5.60393L138.563 4.06007C136.815 5.49939 135.445 7.26527 134.455 9.34664L136.262 10.2054ZM139.843 5.59652C141.367 4.3113 143.187 3.31424 145.319 2.61403L144.694 0.713964C142.345 1.48576 140.293 2.6007 138.554 4.06748L139.843 5.59652ZM145.315 2.61532C147.475 1.91534 149.85 1.56 152.446 1.56V-0.440004C149.667 -0.440004 147.081 -0.0593458 144.698 0.712667L145.315 2.61532ZM152.446 1.56C154.483 1.56 156.364 1.79136 158.096 2.24707L158.605 0.31292C156.689 -0.191369 154.634 -0.440004 152.446 -0.440004V1.56ZM158.112 2.25113C159.847 2.67724 161.418 3.31332 162.831 4.1551L163.854 2.4369C162.259 1.48667 160.502 0.778756 158.589 0.308859L158.112 2.25113ZM163.342 4.296H176.542V2.296H163.342V4.296ZM206.694 25.52L206.35 24.5809L206.35 24.5809L206.694 25.52ZM212.022 20.432L212.957 20.7859L212.96 20.7777L212.022 20.432ZM209.958 9.344L209.257 10.0575L209.264 10.0636L209.958 9.344ZM194.214 9.344L193.519 8.62435L193.513 8.63055L194.214 9.344ZM192.198 20.432L191.26 20.7777L191.265 20.7928L191.271 20.8077L192.198 20.432ZM197.574 25.52L197.917 24.5809L197.917 24.5809L197.574 25.52ZM216.534 49.76L215.795 50.4343L215.795 50.4343L216.534 49.76ZM213.798 48.032L213.45 48.9695L213.458 48.9726L213.798 48.032ZM209.862 47.168L209.735 48.1599L209.746 48.1613L209.756 48.1624L209.862 47.168ZM205.062 46.736L205.004 47.7343L205.005 47.7344L205.062 46.736ZM199.974 46.448L199.918 47.4465L199.918 47.4465L199.974 46.448ZM194.982 45.968L195.121 44.9777L194.828 44.9368L194.561 45.061L194.982 45.968ZM190.566 49.136L189.823 48.467L189.822 48.4681L190.566 49.136ZM189.702 56.576L188.839 57.0817L188.844 57.0905L189.702 56.576ZM192.294 59.024L192.815 58.1707L192.807 58.1654L192.798 58.1602L192.294 59.024ZM196.614 60.656L196.844 59.6827L196.831 59.6798L196.614 60.656ZM208.998 60.656L209.22 61.631L209.22 61.631L208.998 60.656ZM213.606 58.88L213.091 58.0225L213.082 58.0283L213.606 58.88ZM216.534 56.144L215.69 55.6071L215.69 55.6071L216.534 56.144ZM226.23 3.296H227.23V2.296H226.23V3.296ZM224.214 8.48L224.343 9.4716L224.384 9.46633L224.423 9.4578L224.214 8.48ZM218.694 9.2L218.565 8.2084L217.153 8.39251L217.805 9.65796L218.694 9.2ZM218.934 22.688L218.031 22.2586L218.028 22.2651L218.934 22.688ZM215.19 27.632L214.538 26.8738L214.538 26.8738L215.19 27.632ZM195.702 31.088L195.962 30.1225L195.542 30.009L195.172 30.24L195.702 31.088ZM193.35 33.152L194.141 33.7634L194.148 33.755L194.154 33.7464L193.35 33.152ZM193.926 37.952L193.378 38.7885L193.394 38.7993L193.411 38.8095L193.926 37.952ZM202.902 39.68L202.869 40.6795L202.87 40.6795L202.902 39.68ZM208.95 40.016L208.872 41.013L208.88 41.0136L208.888 41.0141L208.95 40.016ZM214.998 40.736L214.82 41.7201L214.823 41.7206L214.998 40.736ZM223.974 45.776L223.139 46.3263L223.143 46.3329L223.148 46.3393L223.974 45.776ZM223.83 57.296L222.95 56.8201L222.944 56.8315L223.83 57.296ZM219.366 62.48L218.756 61.6878L218.747 61.6941L219.366 62.48ZM212.166 66.128L211.866 65.174L211.853 65.1782L212.166 66.128ZM193.302 66.464L193.046 67.4306L193.046 67.4306L193.302 66.464ZM186.678 63.632L186.12 64.4617L186.12 64.4617L186.678 63.632ZM182.694 59.504L181.822 59.9943L181.826 60.0001L182.694 59.504ZM183.654 48.56L184.396 49.2305L184.396 49.2305L183.654 48.56ZM189.846 44.576L190.199 45.5114L192.476 44.6507L190.252 43.6622L189.846 44.576ZM186.39 42.032L185.596 42.6394L185.606 42.6525L185.616 42.6652L186.39 42.032ZM185.526 35.504L186.47 35.8325L186.475 35.8202L185.526 35.504ZM186.678 33.248L185.862 32.67L185.857 32.6769L186.678 33.248ZM191.334 29.312L191.781 30.2064L193.47 29.362L191.822 28.4395L191.334 29.312ZM185.718 23.984L184.86 24.4985L184.864 24.5039L185.718 23.984ZM185.046 9.776L184.143 9.34663L184.14 9.35311L185.046 9.776ZM188.886 4.832L189.522 5.60398L189.53 5.59652L188.886 4.832ZM194.694 1.664L194.386 0.712658L194.382 0.713964L194.694 1.664ZM208.038 1.27999L207.783 2.24707L207.791 2.24917L207.799 2.25113L208.038 1.27999ZM213.03 3.296L212.518 4.1551L212.755 4.296H213.03V3.296ZM202.134 27.24C203.952 27.24 205.593 26.9877 207.037 26.4591L206.35 24.5809C205.171 25.0123 203.771 25.24 202.134 25.24V27.24ZM207.037 26.4591C208.464 25.9371 209.692 25.1958 210.7 24.2238L209.312 22.7842C208.528 23.5402 207.547 24.1429 206.35 24.5809L207.037 26.4591ZM210.7 24.2238C211.704 23.2554 212.458 22.1058 212.957 20.7859L211.087 20.0781C210.69 21.1262 210.099 22.0246 209.312 22.7842L210.7 24.2238ZM212.96 20.7777C213.453 19.4394 213.694 17.9929 213.694 16.448H211.694C211.694 17.7831 211.486 18.9926 211.084 20.0863L212.96 20.7777ZM213.694 16.448C213.694 13.2518 212.706 10.6057 210.652 8.62438L209.264 10.0636C210.858 11.6023 211.694 13.6922 211.694 16.448H213.694ZM210.659 8.63055C208.62 6.62844 205.723 5.704 202.134 5.704V7.704C205.393 7.704 207.712 8.53955 209.257 10.0574L210.659 8.63055ZM202.134 5.704C198.515 5.704 195.589 6.62738 193.52 8.62438L194.908 10.0636C196.487 8.54061 198.841 7.704 202.134 7.704V5.704ZM193.513 8.63055C191.495 10.613 190.526 13.2571 190.526 16.448H192.526C192.526 13.6869 193.349 11.595 194.915 10.0574L193.513 8.63055ZM190.526 16.448C190.526 17.9929 190.766 19.4394 191.26 20.7777L193.136 20.0863C192.733 18.9926 192.526 17.7831 192.526 16.448H190.526ZM191.271 20.8077C191.802 22.1179 192.568 23.2601 193.568 24.2238L194.956 22.7842C194.163 22.0199 193.553 21.1141 193.125 20.0563L191.271 20.8077ZM193.568 24.2238C194.576 25.1958 195.803 25.9371 197.23 26.4591L197.917 24.5809C196.72 24.1429 195.74 23.5402 194.956 22.7842L193.568 24.2238ZM197.23 26.4591C198.675 26.9877 200.315 27.24 202.134 27.24V25.24C200.496 25.24 199.097 25.0123 197.917 24.5809L197.23 26.4591ZM218.542 52.64C218.542 51.2562 218.143 50.0397 217.272 49.0857L215.795 50.4343C216.268 50.9523 216.542 51.6558 216.542 52.64H218.542ZM217.272 49.0857C216.469 48.2055 215.408 47.5501 214.138 47.0914L213.458 48.9726C214.492 49.3459 215.255 49.8425 215.795 50.4343L217.272 49.0857ZM214.146 47.0946C212.93 46.6431 211.534 46.3402 209.968 46.1736L209.756 48.1624C211.198 48.3158 212.425 48.5889 213.45 48.9694L214.146 47.0946ZM209.989 46.1761C208.459 45.9807 206.835 45.8348 205.118 45.7376L205.005 47.7344C206.681 47.8292 208.257 47.9713 209.735 48.1599L209.989 46.1761ZM205.119 45.7377C203.455 45.6416 201.758 45.5456 200.029 45.4495L199.918 47.4465C201.646 47.5424 203.341 47.6384 205.004 47.7343L205.119 45.7377ZM200.029 45.4495C198.327 45.355 196.691 45.1975 195.121 44.9777L194.843 46.9583C196.473 47.1865 198.165 47.349 199.918 47.4465L200.029 45.4495ZM194.561 45.061C192.664 45.9415 191.077 47.0731 189.823 48.467L191.309 49.805C192.359 48.6389 193.715 47.6585 195.403 46.875L194.561 45.061ZM189.822 48.4681C188.535 49.9019 187.886 51.6126 187.886 53.552H189.886C189.886 52.0994 190.357 50.8661 191.31 49.8039L189.822 48.4681ZM187.886 53.552C187.886 54.8156 188.204 55.9985 188.839 57.0817L190.565 56.0703C190.112 55.2975 189.886 54.4644 189.886 53.552H187.886ZM188.844 57.0905C189.522 58.2201 190.52 59.1472 191.79 59.8878L192.798 58.1602C191.763 57.5568 191.034 56.8519 190.559 56.0615L188.844 57.0905ZM191.772 59.8773C193.043 60.6535 194.593 61.2313 196.397 61.6322L196.831 59.6798C195.179 59.3127 193.849 58.8025 192.815 58.1707L191.772 59.8773ZM196.384 61.6292C198.238 62.0675 200.383 62.28 202.806 62.28V60.28C200.493 60.28 198.509 60.0765 196.844 59.6828L196.384 61.6292ZM202.806 62.28C205.168 62.28 207.309 62.0669 209.22 61.631L208.776 59.681C207.039 60.0771 205.052 60.28 202.806 60.28V62.28ZM209.22 61.631C211.123 61.197 212.767 60.5703 214.13 59.7317L213.082 58.0283C211.949 58.7257 210.521 59.283 208.776 59.681L209.22 61.631ZM214.12 59.7375C215.508 58.9049 216.608 57.8908 217.378 56.6809L215.69 55.6071C215.116 56.5092 214.264 57.3191 213.091 58.0225L214.12 59.7375ZM217.378 56.6809C218.154 55.4606 218.542 54.1056 218.542 52.64H216.542C216.542 53.7344 216.258 54.7154 215.69 55.6071L217.378 56.6809ZM225.23 3.296V6.464H227.23V3.296H225.23ZM225.23 6.464C225.23 6.75908 225.146 6.9261 225.019 7.05289C224.867 7.20452 224.568 7.38148 224.004 7.50219L224.423 9.4578C225.204 9.29051 225.913 8.98748 226.433 8.4671C226.978 7.9219 227.23 7.22491 227.23 6.464H225.23ZM224.085 7.4884L218.565 8.2084L218.823 10.1916L224.343 9.4716L224.085 7.4884ZM217.805 9.65796C218.814 11.6175 219.326 13.7947 219.326 16.208H221.326C221.326 13.5013 220.749 11.0065 219.583 8.74204L217.805 9.65796ZM219.326 16.208C219.326 18.4418 218.889 20.4532 218.031 22.2586L219.837 23.1174C220.835 21.0188 221.326 18.7101 221.326 16.208H219.326ZM218.028 22.2651C217.191 24.0571 216.03 25.5907 214.538 26.8738L215.842 28.3902C217.55 26.9213 218.884 25.1589 219.84 23.1109L218.028 22.2651ZM214.538 26.8738C213.048 28.1547 211.248 29.1502 209.118 29.85L209.742 31.75C212.092 30.9778 214.131 29.8613 215.842 28.3902L214.538 26.8738ZM209.118 29.85C206.989 30.5494 204.664 30.904 202.134 30.904V32.904C204.852 32.904 207.391 32.5226 209.742 31.75L209.118 29.85ZM202.134 30.904C199.942 30.904 197.886 30.6417 195.962 30.1225L195.441 32.0535C197.549 32.6223 199.782 32.904 202.134 32.904V30.904ZM195.172 30.24C194.074 30.9264 193.184 31.694 192.546 32.5576L194.154 33.7464C194.604 33.138 195.282 32.5295 196.232 31.936L195.172 30.24ZM192.559 32.5406C191.908 33.382 191.534 34.3114 191.534 35.312H193.534C193.534 34.8406 193.703 34.33 194.141 33.7634L192.559 32.5406ZM191.534 35.312C191.534 36.7856 192.155 37.9873 193.378 38.7885L194.474 37.1155C193.841 36.7007 193.534 36.1424 193.534 35.312H191.534ZM193.411 38.8095C194.512 39.4699 195.891 39.9173 197.505 40.1864L197.834 38.2136C196.377 37.9707 195.26 37.5861 194.44 37.0945L193.411 38.8095ZM197.505 40.1864C199.094 40.4512 200.884 40.6144 202.869 40.6795L202.935 38.6805C201.016 38.6176 199.317 38.4608 197.834 38.2136L197.505 40.1864ZM202.87 40.6795C204.838 40.743 206.839 40.8541 208.872 41.013L209.028 39.019C206.965 38.8579 204.934 38.745 202.934 38.6805L202.87 40.6795ZM208.888 41.0141C210.931 41.1398 212.909 41.3754 214.82 41.7201L215.175 39.7519C213.183 39.3926 211.128 39.1482 209.011 39.0179L208.888 41.0141ZM214.823 41.7206C216.723 42.0577 218.384 42.6049 219.816 43.3509L220.74 41.5771C219.1 40.7231 217.241 40.1183 215.173 39.7514L214.823 41.7206ZM219.816 43.3509C221.205 44.0745 222.307 45.0644 223.139 46.3263L224.809 45.2257C223.785 43.6716 222.423 42.4535 220.74 41.5771L219.816 43.3509ZM223.148 46.3393C223.964 47.5363 224.414 49.1466 224.414 51.248H226.414C226.414 48.8694 225.904 46.8317 224.8 45.2127L223.148 46.3393ZM224.414 51.248C224.414 53.1507 223.933 55.0042 222.95 56.8202L224.709 57.7718C225.839 55.6838 226.414 53.5053 226.414 51.248H224.414ZM222.944 56.8315C221.995 58.6414 220.607 60.2615 218.756 61.6879L219.976 63.2721C222.029 61.6905 223.617 59.8546 224.715 57.7605L222.944 56.8315ZM218.747 61.6941C216.908 63.1419 214.621 64.3073 211.866 65.1741L212.466 67.0819C215.407 66.1567 217.92 64.8901 219.984 63.2659L218.747 61.6941ZM211.853 65.1782C209.156 66.0671 206.08 66.52 202.614 66.52V68.52C206.252 68.52 209.544 68.0449 212.479 67.0778L211.853 65.1782ZM202.614 66.52C199.125 66.52 196.11 66.1739 193.558 65.4974L193.046 67.4306C195.805 68.1621 198.999 68.52 202.614 68.52V66.52ZM193.558 65.4974C190.98 64.8139 188.881 63.9089 187.236 62.8023L186.12 64.4617C187.995 65.7231 190.312 66.7061 193.046 67.4306L193.558 65.4974ZM187.236 62.8023C185.582 61.6892 184.37 60.4209 183.562 59.0079L181.826 60.0001C182.81 61.7231 184.254 63.2068 186.12 64.4617L187.236 62.8023ZM183.565 59.0137C182.782 57.6213 182.398 56.1734 182.398 54.656H180.398C180.398 56.5306 180.878 58.3147 181.822 59.9943L183.565 59.0137ZM182.398 54.656C182.398 52.4849 183.07 50.6972 184.396 49.2305L182.912 47.8895C181.23 49.7508 180.398 52.0271 180.398 54.656H182.398ZM184.396 49.2305C185.77 47.7103 187.688 46.461 190.199 45.5114L189.492 43.6406C186.756 44.675 184.546 46.0817 182.912 47.8895L184.396 49.2305ZM190.252 43.6622C188.933 43.0758 187.915 42.3163 187.164 41.3988L185.616 42.6652C186.593 43.8597 187.879 44.7962 189.44 45.4898L190.252 43.6622ZM187.184 41.4245C186.524 40.5609 186.142 39.341 186.142 37.664H184.142C184.142 39.635 184.592 41.3271 185.596 42.6394L187.184 41.4245ZM186.142 37.664C186.142 37.0831 186.247 36.4741 186.47 35.8325L184.581 35.1755C184.293 36.0059 184.142 36.8369 184.142 37.664H186.142ZM186.475 35.8202C186.697 35.152 187.036 34.485 187.499 33.8191L185.857 32.6769C185.296 33.483 184.866 34.32 184.577 35.1878L186.475 35.8202ZM187.494 33.826C187.989 33.1273 188.591 32.4651 189.304 31.8406L187.987 30.3354C187.165 31.0549 186.455 31.8327 185.862 32.67L187.494 33.826ZM189.304 31.8406C190.001 31.231 190.824 30.6849 191.781 30.2064L190.887 28.4176C189.796 28.9631 188.827 29.601 187.987 30.3354L189.304 31.8406ZM191.822 28.4395C189.563 27.174 187.821 25.5156 186.572 23.4641L184.864 24.5039C186.303 26.8684 188.305 28.762 190.845 30.1845L191.822 28.4395ZM186.575 23.4695C185.336 21.4039 184.702 18.9943 184.702 16.208H182.702C182.702 19.3097 183.412 22.084 184.86 24.4985L186.575 23.4695ZM184.702 16.208C184.702 13.9688 185.125 11.9716 185.952 10.1989L184.14 9.35311C183.175 11.4204 182.702 13.7112 182.702 16.208H184.702ZM185.949 10.2054C186.816 8.38272 188.005 6.8526 189.522 5.60393L188.25 4.06007C186.502 5.49939 185.132 7.26527 184.143 9.34664L185.949 10.2054ZM189.53 5.59652C191.055 4.3113 192.875 3.31424 195.006 2.61403L194.382 0.713964C192.033 1.48576 189.981 2.6007 188.241 4.06748L189.53 5.59652ZM195.002 2.61532C197.163 1.91534 199.538 1.56 202.134 1.56V-0.440004C199.354 -0.440004 196.769 -0.0593458 194.386 0.712667L195.002 2.61532ZM202.134 1.56C204.17 1.56 206.052 1.79136 207.783 2.24707L208.292 0.31292C206.376 -0.191369 204.322 -0.440004 202.134 -0.440004V1.56ZM207.799 2.25113C209.534 2.67724 211.105 3.31332 212.518 4.1551L213.542 2.4369C211.947 1.48667 210.19 0.778756 208.276 0.308859L207.799 2.25113ZM213.03 4.296H226.23V2.296H213.03V4.296ZM261.417 28.112H262.417V27.0789L261.384 27.1125L261.417 28.112ZM251.337 29.072L251.509 30.0572L251.518 30.0555L251.337 29.072ZM244.569 30.992L244.155 30.0816L244.149 30.0845L244.569 30.992ZM240.777 33.824L239.971 33.2316L239.965 33.2394L239.96 33.2473L240.777 33.824ZM240.249 40.784L239.336 41.1931L239.336 41.1931L240.249 40.784ZM241.929 43.088L241.275 43.8448L241.294 43.8606L241.313 43.8755L241.929 43.088ZM244.473 44.384L244.186 45.3418L244.204 45.3474L244.223 45.3523L244.473 44.384ZM251.769 44.336L251.994 45.3104L252.006 45.3077L252.017 45.3047L251.769 44.336ZM255.273 42.992L254.815 42.1026L254.805 42.1082L255.273 42.992ZM258.441 40.928L257.825 40.14L257.819 40.1447L257.813 40.1496L258.441 40.928ZM261.417 38.192L262.146 38.8759L262.417 38.5874V38.192H261.417ZM233.817 8.24L233.123 7.52015L232.567 8.05617L232.945 8.72953L233.817 8.24ZM242.505 2.432L242.124 1.50752L242.124 1.50752L242.505 2.432ZM260.073 1.856L260.463 0.935417L260.463 0.935417L260.073 1.856ZM265.401 5.6L266.144 4.93103L266.144 4.93103L265.401 5.6ZM268.665 11.408L267.714 11.7162L267.714 11.7162L268.665 11.408ZM269.769 50V51H270.769V50H269.769ZM264.057 49.616L263.516 50.4572L263.538 50.4713L263.561 50.4842L264.057 49.616ZM263.001 47.984L262.022 48.188L262.033 48.2391L262.048 48.2888L263.001 47.984ZM262.041 43.376L263.02 43.172L262.659 41.4417L261.362 42.6419L262.041 43.376ZM258.297 46.544L258.89 47.3491L258.897 47.3441L258.904 47.339L258.297 46.544ZM254.457 48.848L254.869 49.7591L254.878 49.7551L254.887 49.7509L254.457 48.848ZM250.137 50.24L249.933 49.261L249.921 49.2635L249.909 49.2663L250.137 50.24ZM239.769 50L239.458 50.9505L239.466 50.9532L239.475 50.9558L239.769 50ZM235.401 47.6L234.745 48.3551L234.755 48.3634L235.401 47.6ZM232.473 43.616L231.555 44.0121L231.559 44.0231L231.564 44.0339L232.473 43.616ZM233.001 32.336L233.858 32.8505L233.862 32.8437L233.001 32.336ZM238.137 27.584L238.639 28.4486L238.639 28.4486L238.137 27.584ZM247.401 24.224L247.622 25.1992L247.63 25.1974L247.401 24.224ZM261.417 22.688L261.44 23.6877L262.417 23.6651V22.688H261.417ZM258.969 10.352L258.202 10.9934L258.207 10.9996L258.969 10.352ZM246.489 8.24L246.831 9.17986L246.842 9.17547L246.489 8.24ZM242.793 10.016L243.323 10.864L243.33 10.8597L242.793 10.016ZM240.105 11.792L240.676 12.6129L240.683 12.608L240.105 11.792ZM236.409 12.128L235.799 12.9206L235.819 12.9359L235.84 12.9502L236.409 12.128ZM235.353 10.976L234.481 11.4655L234.496 11.4916L234.512 11.5168L235.353 10.976ZM261.384 27.1125C257.416 27.2416 254.004 27.5648 251.156 28.0885L251.518 30.0555C254.238 29.5552 257.545 29.2384 261.449 29.1115L261.384 27.1125ZM251.165 28.0869C248.363 28.5756 246.018 29.2348 244.155 30.0816L244.983 31.9024C246.64 31.1492 248.807 30.5284 251.509 30.0571L251.165 28.0869ZM244.149 30.0845C242.327 30.928 240.904 31.9634 239.971 33.2316L241.583 34.4164C242.25 33.5086 243.355 32.656 244.989 31.8995L244.149 30.0845ZM239.96 33.2473C239.072 34.5057 238.625 35.9235 238.625 37.472H240.625C240.625 36.3325 240.946 35.3183 241.594 34.4007L239.96 33.2473ZM238.625 37.472C238.625 38.8577 238.85 40.1077 239.336 41.1931L241.161 40.3749C240.816 39.6043 240.625 38.6463 240.625 37.472H238.625ZM239.336 41.1931C239.807 42.2419 240.451 43.1326 241.275 43.8448L242.582 42.3312C241.999 41.8274 241.523 41.1821 241.161 40.3749L239.336 41.1931ZM241.313 43.8755C242.154 44.5337 243.115 45.0206 244.186 45.3418L244.76 43.4262C243.911 43.1714 243.176 42.7943 242.545 42.3005L241.313 43.8755ZM244.223 45.3523C245.304 45.6312 246.444 45.768 247.641 45.768V43.768C246.597 43.768 245.626 43.6488 244.723 43.4157L244.223 45.3523ZM247.641 45.768C249.208 45.768 250.661 45.6181 251.994 45.3104L251.544 43.3616C250.381 43.6299 249.082 43.768 247.641 43.768V45.768ZM252.017 45.3047C253.338 44.966 254.58 44.4903 255.741 43.8758L254.805 42.1082C253.79 42.6457 252.696 43.066 251.521 43.3673L252.017 45.3047ZM255.73 43.8813C256.911 43.2738 258.024 42.5486 259.069 41.7064L257.813 40.1496C256.873 40.9074 255.874 41.5582 254.816 42.1027L255.73 43.8813ZM259.057 41.716C260.124 40.8819 261.154 39.9346 262.146 38.8759L260.687 37.5081C259.76 38.4974 258.806 39.3741 257.825 40.14L259.057 41.716ZM262.417 38.192V28.112H260.417V38.192H262.417ZM234.511 8.95984C237.119 6.44535 239.911 4.58346 242.886 3.35648L242.124 1.50752C238.891 2.84054 235.891 4.85065 233.123 7.52015L234.511 8.95984ZM242.886 3.35648C245.855 2.13219 249.163 1.512 252.825 1.512V-0.488001C248.934 -0.488001 245.363 0.171812 242.124 1.50752L242.886 3.35648ZM252.825 1.512C255.435 1.512 257.715 1.94178 259.682 2.77658L260.463 0.935417C258.207 -0.0217771 255.655 -0.488001 252.825 -0.488001V1.512ZM259.682 2.77658C261.669 3.61933 263.322 4.78467 264.658 6.26896L266.144 4.93103C264.6 3.21533 262.701 1.88467 260.463 0.935417L259.682 2.77658ZM264.658 6.26896C265.994 7.75373 267.016 9.563 267.714 11.7162L269.616 11.0998C268.842 8.70899 267.688 6.64627 266.144 4.93103L264.658 6.26896ZM267.714 11.7162C268.413 13.8759 268.769 16.2663 268.769 18.896H270.769C270.769 16.0857 270.389 13.4841 269.616 11.0998L267.714 11.7162ZM268.769 18.896V50H270.769V18.896H268.769ZM269.769 49H265.977V51H269.769V49ZM265.977 49C265.223 49 264.784 48.8799 264.553 48.7478L263.561 50.4842C264.226 50.8641 265.067 51 265.977 51V49ZM264.598 48.7748C264.43 48.667 264.177 48.3783 263.953 47.6792L262.048 48.2888C262.337 49.1897 262.788 49.989 263.516 50.4572L264.598 48.7748ZM263.98 47.78L263.02 43.172L261.062 43.58L262.022 48.188L263.98 47.78ZM261.362 42.6419C260.102 43.8074 258.878 44.8426 257.69 45.749L258.904 47.339C260.148 46.3894 261.42 45.3126 262.72 44.1101L261.362 42.6419ZM257.704 45.7389C256.538 46.5978 255.313 47.3329 254.027 47.9451L254.887 49.7509C256.289 49.0831 257.624 48.2822 258.89 47.3491L257.704 45.7389ZM254.045 47.9369C252.772 48.5129 251.402 48.955 249.933 49.261L250.341 51.219C251.944 50.885 253.454 50.3991 254.869 49.7591L254.045 47.9369ZM249.909 49.2663C248.493 49.5977 246.891 49.768 245.097 49.768V51.768C247.015 51.768 248.773 51.5863 250.365 51.2137L249.909 49.2663ZM245.097 49.768C243.3 49.768 241.624 49.5245 240.063 49.0442L239.475 50.9558C241.242 51.4995 243.118 51.768 245.097 51.768V49.768ZM240.08 49.0495C238.53 48.5428 237.189 47.8034 236.047 46.8366L234.755 48.3634C236.108 49.5086 237.68 50.3692 239.458 50.9505L240.08 49.0495ZM236.057 46.845C234.958 45.8905 234.064 44.6812 233.381 43.1981L231.564 44.0339C232.354 45.7508 233.412 47.1975 234.745 48.355L236.057 46.845ZM233.391 43.2199C232.752 41.7394 232.417 39.9598 232.417 37.856H230.417C230.417 40.1682 230.785 42.2286 231.555 44.0121L233.391 43.2199ZM232.417 37.856C232.417 36.1298 232.889 34.4662 233.858 32.8505L232.143 31.8215C231.001 33.7258 230.417 35.7422 230.417 37.856H232.417ZM233.862 32.8437C234.808 31.2391 236.374 29.7649 238.639 28.4486L237.634 26.7194C235.164 28.1551 233.306 29.8489 232.139 31.8283L233.862 32.8437ZM238.639 28.4486C240.891 27.1401 243.875 26.0495 247.622 25.1992L247.18 23.2488C243.311 24.1265 240.119 25.2759 237.634 26.7194L238.639 28.4486ZM247.63 25.1974C251.349 24.3223 255.947 23.8147 261.44 23.6877L261.394 21.6883C255.815 21.8173 251.069 22.3337 247.172 23.2506L247.63 25.1974ZM262.417 22.688V18.896H260.417V22.688H262.417ZM262.417 18.896C262.417 14.997 261.577 11.8764 259.731 9.70435L258.207 10.9996C259.625 12.6676 260.417 15.243 260.417 18.896H262.417ZM259.736 9.71058C257.871 7.47928 255.174 6.424 251.817 6.424V8.424C254.732 8.424 256.803 9.32072 258.202 10.9934L259.736 9.71058ZM251.817 6.424C249.626 6.424 247.722 6.70522 246.135 7.30452L246.842 9.17547C248.136 8.68677 249.784 8.424 251.817 8.424V6.424ZM246.147 7.3002C244.684 7.83236 243.384 8.45455 242.256 9.17234L243.33 10.8597C244.314 10.2334 245.478 9.67164 246.831 9.17979L246.147 7.3002ZM242.263 9.168C241.227 9.81551 240.314 10.4183 239.527 10.976L240.683 12.608C241.432 12.0777 242.311 11.4965 243.323 10.864L242.263 9.168ZM239.534 10.9711C238.928 11.3923 238.388 11.56 237.897 11.56V13.56C238.878 13.56 239.809 13.2157 240.676 12.6129L239.534 10.9711ZM237.897 11.56C237.495 11.56 237.204 11.4625 236.978 11.3058L235.84 12.9502C236.445 13.3695 237.147 13.56 237.897 13.56V11.56ZM237.019 11.3354C236.695 11.0865 236.421 10.7881 236.194 10.4352L234.512 11.5168C234.861 12.0599 235.291 12.5295 235.799 12.9206L237.019 11.3354ZM236.225 10.4865L234.689 7.75046L232.945 8.72953L234.481 11.4655L236.225 10.4865ZM290.896 11.12L289.899 11.1977L290.197 15.0209L291.804 11.5391L290.896 11.12ZM296.56 3.344L297.198 4.11405L297.204 4.10863L296.56 3.344ZM307.696 0.847998L307.461 1.82011L307.468 1.82184L307.696 0.847998ZM310.24 1.904L311.235 2.00128L311.294 1.39768L310.786 1.06638L310.24 1.904ZM309.616 8.288L310.588 8.52137L310.604 8.45412L310.611 8.38528L309.616 8.288ZM306.208 9.2L305.991 10.1762L305.991 10.1762L306.208 9.2ZM299.152 9.584L298.806 8.64562L298.798 8.64871L299.152 9.584ZM295.936 11.6L296.617 12.3319L296.618 12.3311L295.936 11.6ZM293.392 14.864L292.529 14.3588L292.525 14.3655L293.392 14.864ZM291.376 19.28L290.436 18.9368L290.376 19.103V19.28H291.376ZM291.376 50V51H292.376V50H291.376ZM282.784 50H281.784V51H282.784V50ZM282.784 1.376V0.375999H281.784V1.376H282.784ZM289.6 1.904L290.307 1.19689L290.307 1.19689L289.6 1.904ZM290.32 3.728L291.317 3.65031L291.314 3.61575L291.309 3.58145L290.32 3.728ZM291.804 11.5391C293.293 8.31247 295.099 5.85321 297.198 4.11402L295.922 2.57398C293.541 4.54679 291.57 7.27153 289.988 10.7009L291.804 11.5391ZM297.204 4.10863C299.245 2.38863 301.745 1.512 304.768 1.512V-0.488001C301.326 -0.488001 298.354 0.52337 295.915 2.57937L297.204 4.10863ZM304.768 1.512C305.718 1.512 306.615 1.61592 307.461 1.82008L307.93 -0.124085C306.92 -0.367921 305.865 -0.488001 304.768 -0.488001V1.512ZM307.468 1.82184C308.329 2.02256 309.066 2.33252 309.693 2.74161L310.786 1.06638C309.941 0.515468 308.983 0.12143 307.923 -0.125844L307.468 1.82184ZM309.244 1.80671L308.62 8.19072L310.611 8.38528L311.235 2.00128L309.244 1.80671ZM308.643 8.05462C308.582 8.31133 308.5 8.39559 308.471 8.41978C308.45 8.43799 308.381 8.488 308.176 8.488V10.488C308.738 10.488 309.294 10.338 309.752 9.95622C310.203 9.58041 310.458 9.06467 310.588 8.52137L308.643 8.05462ZM308.176 8.488C307.841 8.488 307.272 8.41216 306.425 8.22381L305.991 10.1762C306.871 10.3718 307.614 10.488 308.176 10.488V8.488ZM306.425 8.22381C305.475 8.01287 304.425 7.912 303.28 7.912V9.912C304.311 9.912 305.212 10.0031 305.991 10.1762L306.425 8.22381ZM303.28 7.912C301.647 7.912 300.151 8.15009 298.806 8.64565L299.497 10.5223C300.584 10.1219 301.84 9.912 303.28 9.912V7.912ZM298.798 8.64871C297.487 9.14449 296.305 9.88752 295.253 10.8689L296.618 12.3311C297.486 11.5205 298.448 10.9195 299.506 10.5193L298.798 8.64871ZM295.254 10.8681C294.242 11.8101 293.336 12.979 292.529 14.3588L294.255 15.3692C294.983 14.125 295.773 13.1179 296.617 12.3319L295.254 10.8681ZM292.525 14.3655C291.755 15.7038 291.06 17.2293 290.436 18.9368L292.315 19.6232C292.907 18.0027 293.556 16.5842 294.259 15.3625L292.525 14.3655ZM290.376 19.28V50H292.376V19.28H290.376ZM291.376 49H282.784V51H291.376V49ZM283.784 50V1.376H281.784V50H283.784ZM282.784 2.376H287.68V0.375999H282.784V2.376ZM287.68 2.376C288.548 2.376 288.836 2.55418 288.893 2.61111L290.307 1.19689C289.66 0.549819 288.667 0.375999 287.68 0.375999V2.376ZM288.893 2.6111C289.015 2.73408 289.213 3.08048 289.33 3.87455L291.309 3.58145C291.17 2.64752 290.888 1.77792 290.307 1.19689L288.893 2.6111ZM289.323 3.80568L289.899 11.1977L291.893 11.0423L291.317 3.65031L289.323 3.80568ZM345.88 2.384L345.496 3.30738L345.496 3.30738L345.88 2.384ZM353.176 7.424L352.442 8.10362L352.442 8.10362L353.176 7.424ZM357.784 15.344L356.837 15.6661L356.841 15.6778L357.784 15.344ZM357.784 36.032L356.841 35.6981L356.838 35.7069L357.784 36.032ZM353.176 43.904L352.442 43.2244L352.442 43.2244L353.176 43.904ZM345.88 48.944L346.255 49.8711L346.264 49.8674L345.88 48.944ZM326.584 48.944L326.2 49.8675L326.212 49.8725L326.584 48.944ZM319.288 43.904L320.021 43.2244L320.021 43.2244L319.288 43.904ZM314.632 36.032L313.686 36.3571L313.689 36.3658L314.632 36.032ZM314.632 15.344L313.688 15.0132L313.686 15.0189L314.632 15.344ZM319.288 7.424L320.021 8.10362L320.021 8.10362L319.288 7.424ZM326.584 2.384L326.203 1.4591L326.2 1.46061L326.584 2.384ZM347.032 39.2L347.835 39.7948L347.838 39.791L347.032 39.2ZM329.896 8.576L329.481 7.66616L329.475 7.66899L329.896 8.576ZM325.384 12.176L324.593 11.5631L324.586 11.5734L325.384 12.176ZM322.696 17.984L321.729 17.7288L321.726 17.7383L322.696 17.984ZM325.384 39.2L324.577 39.7911L324.584 39.8L325.384 39.2ZM336.28 1.608C339.72 1.608 342.786 2.18104 345.496 3.30738L346.264 1.46061C343.277 0.218954 339.944 -0.392002 336.28 -0.392002V1.608ZM345.496 3.30738C348.216 4.43845 350.528 6.03728 352.442 8.10362L353.909 6.74438C351.792 4.45872 349.239 2.69754 346.264 1.46061L345.496 3.30738ZM352.442 8.10362C354.353 10.1663 355.821 12.6808 356.837 15.6661L358.73 15.0219C357.634 11.7992 356.03 9.03366 353.909 6.74438L352.442 8.10362ZM356.841 15.6778C357.885 18.6263 358.416 21.951 358.416 25.664H360.416C360.416 21.761 359.858 18.2057 358.726 15.0101L356.841 15.6778ZM358.416 25.664C358.416 29.4101 357.885 32.7506 356.841 35.6982L358.726 36.3658C359.858 33.1694 360.416 29.5979 360.416 25.664H358.416ZM356.838 35.7069C355.823 38.6599 354.355 41.1599 352.442 43.2244L353.909 44.5836C356.028 42.2961 357.632 39.5481 358.729 36.3571L356.838 35.7069ZM352.442 43.2244C350.528 45.2907 348.216 46.8895 345.496 48.0206L346.264 49.8674C349.239 48.6305 351.792 46.8693 353.909 44.5836L352.442 43.2244ZM345.505 48.017C342.793 49.1139 339.723 49.672 336.28 49.672V51.672C339.94 51.672 343.27 51.0781 346.255 49.871L345.505 48.017ZM336.28 49.672C332.803 49.672 329.7 49.1135 326.955 48.0155L326.212 49.8725C329.227 51.0785 332.588 51.672 336.28 51.672V49.672ZM326.968 48.0206C324.247 46.8895 321.936 45.2907 320.021 43.2244L318.554 44.5836C320.672 46.8693 323.224 48.6305 326.2 49.8674L326.968 48.0206ZM320.021 43.2244C318.106 41.1577 316.621 38.6546 315.574 35.6982L313.689 36.3658C314.818 39.5534 316.437 42.2983 318.554 44.5836L320.021 43.2244ZM315.577 35.7069C314.563 32.7566 314.048 29.413 314.048 25.664H312.048C312.048 29.595 312.588 33.1634 313.686 36.3571L315.577 35.7069ZM314.048 25.664C314.048 21.948 314.563 18.6202 315.577 15.6691L313.686 15.0189C312.588 18.2118 312.048 21.764 312.048 25.664H314.048ZM315.575 15.6748C316.623 12.6861 318.108 10.1685 320.021 8.10362L318.554 6.74438C316.435 9.03145 314.816 11.7939 313.688 15.0132L315.575 15.6748ZM320.021 8.10362C321.936 6.03728 324.247 4.43845 326.968 3.30738L326.2 1.46061C323.224 2.69754 320.672 4.45872 318.554 6.74438L320.021 8.10362ZM326.964 3.30889C329.706 2.1814 332.807 1.608 336.28 1.608V-0.392002C332.585 -0.392002 329.221 0.218601 326.203 1.45911L326.964 3.30889ZM336.28 45C341.323 45 345.239 43.3034 347.835 39.7948L346.228 38.6052C344.088 41.4966 340.836 43 336.28 43V45ZM347.838 39.791C350.376 36.3272 351.584 31.5949 351.584 25.712H349.584C349.584 31.3491 348.423 35.6088 346.225 38.609L347.838 39.791ZM351.584 25.712C351.584 19.7985 350.377 15.0496 347.838 11.585L346.225 12.767C348.423 15.7664 349.584 20.0415 349.584 25.712H351.584ZM347.838 11.585C345.243 8.04336 341.327 6.328 336.28 6.328V8.328C340.832 8.328 344.084 9.84464 346.225 12.767L347.838 11.585ZM336.28 6.328C333.734 6.328 331.46 6.76348 329.481 7.66618L330.311 9.48582C331.98 8.72452 333.961 8.328 336.28 8.328V6.328ZM329.475 7.66899C327.537 8.5685 325.907 9.86963 324.593 11.5632L326.174 12.7888C327.292 11.3464 328.67 10.2475 330.317 9.48301L329.475 7.66899ZM324.586 11.5734C323.308 13.2647 322.363 15.3252 321.729 17.7288L323.663 18.2392C324.244 16.0348 325.091 14.2233 326.182 12.7786L324.586 11.5734ZM321.726 17.7383C321.126 20.1064 320.832 22.7672 320.832 25.712H322.832C322.832 22.8968 323.113 20.4056 323.665 18.2297L321.726 17.7383ZM320.832 25.712C320.832 31.5949 322.039 36.3272 324.577 39.791L326.19 38.609C323.992 35.6088 322.832 31.3491 322.832 25.712H320.832ZM324.584 39.8C327.214 43.307 331.177 45 336.28 45V43C331.654 43 328.353 41.493 326.184 38.6L324.584 39.8ZM398.572 9.392L397.721 8.8679L397.707 8.89018L397.694 8.91315L398.572 9.392ZM392.908 8.768L392.448 9.65575L392.467 9.66581L392.487 9.67501L392.908 8.768ZM389.788 7.568L389.487 8.52158L389.499 8.52521L389.51 8.52856L389.788 7.568ZM381.58 7.568L381.873 8.52435L381.885 8.52067L381.897 8.51668L381.58 7.568ZM378.604 9.056L377.995 8.26337L377.987 8.26918L377.98 8.27513L378.604 9.056ZM376.732 11.312L375.845 10.8517L375.841 10.8582L375.838 10.8648L376.732 11.312ZM377.164 17.168L376.401 17.8139L376.408 17.8223L376.415 17.8306L377.164 17.168ZM380.044 19.328L380.501 18.4384L380.501 18.4384L380.044 19.328ZM384.076 20.96L383.772 21.9127L383.782 21.9156L383.791 21.9184L384.076 20.96ZM388.684 22.448L388.357 23.3928L388.368 23.3967L388.38 23.4004L388.684 22.448ZM393.34 24.176L393.732 23.2558L393.732 23.2558L393.34 24.176ZM397.372 26.576L398.002 25.7992L398.002 25.7992L397.372 26.576ZM400.204 30.128L399.31 30.5752L399.316 30.5875L399.323 30.5997L400.204 30.128ZM400.108 41.36L401.029 41.7502L401.031 41.7446L400.108 41.36ZM396.556 46.304L397.216 47.0557L397.225 47.048L396.556 46.304ZM390.796 49.568L390.464 48.6248L390.464 48.6248L390.796 49.568ZM373.708 49.136L373.331 50.0623L373.341 50.066L373.708 49.136ZM366.7 44.864L365.85 44.3385L365.411 45.0488L366.031 45.6073L366.7 44.864ZM368.716 41.6L369.567 42.1255L369.568 42.1241L368.716 41.6ZM369.628 40.64L369.092 39.7963L369.091 39.7963L369.628 40.64ZM372.796 40.976L372.223 41.7952L372.223 41.7952L372.796 40.976ZM375.1 42.464L374.581 43.3188L374.588 43.3228L374.595 43.3267L375.1 42.464ZM378.46 43.952L378.137 44.8983L378.137 44.8983L378.46 43.952ZM387.724 44L388.041 44.9487L388.051 44.9451L388.062 44.9412L387.724 44ZM390.844 42.224L391.507 42.973L391.507 42.973L390.844 42.224ZM392.668 39.68L391.751 39.2824L391.745 39.2954L391.74 39.3086L392.668 39.68ZM392.188 33.296L391.402 33.9138L391.414 33.9294L391.427 33.9445L392.188 33.296ZM389.356 31.04L388.881 31.9197L388.89 31.9247L388.9 31.9296L389.356 31.04ZM385.276 29.408L384.972 30.3607L384.984 30.3645L384.996 30.368L385.276 29.408ZM380.62 27.92L380.31 28.8706L380.316 28.8724L380.62 27.92ZM375.964 26.192L375.556 27.105L375.568 27.1102L375.58 27.1151L375.964 26.192ZM369.052 20.048L368.15 20.4795L368.156 20.4914L368.162 20.5031L369.052 20.048ZM369.148 9.392L370.059 9.80452L370.062 9.79814L369.148 9.392ZM372.508 4.88L373.165 5.63466L373.174 5.62651L372.508 4.88ZM377.932 1.76L378.27 2.70142L378.27 2.70142L377.932 1.76ZM393.868 2.144L393.493 3.07085L393.5 3.0737L393.507 3.07644L393.868 2.144ZM400.492 6.272L401.344 6.79609L401.769 6.10485L401.18 5.54637L400.492 6.272ZM397.694 8.91315C397.574 9.13385 397.447 9.25429 397.329 9.32446C397.211 9.39455 397.046 9.448 396.796 9.448V11.448C397.347 11.448 397.877 11.3254 398.351 11.0435C398.825 10.7617 399.187 10.3541 399.45 9.87085L397.694 8.91315ZM396.796 9.448C396.555 9.448 396.187 9.35662 395.665 9.05457L394.663 10.7854C395.358 11.1874 396.077 11.448 396.796 11.448V9.448ZM395.665 9.05457C395.023 8.68286 394.243 8.285 393.329 7.86099L392.487 9.67501C393.366 10.083 394.089 10.4531 394.663 10.7854L395.665 9.05457ZM393.369 7.88024C392.432 7.39463 391.328 6.97255 390.066 6.60743L389.51 8.52856C390.681 8.86744 391.657 9.24537 392.448 9.65575L393.369 7.88024ZM390.09 6.61441C388.752 6.19192 387.205 5.992 385.468 5.992V7.992C387.06 7.992 388.393 8.17608 389.487 8.52158L390.09 6.61441ZM385.468 5.992C383.94 5.992 382.535 6.19568 381.264 6.61931L381.897 8.51668C382.93 8.17231 384.116 7.992 385.468 7.992V5.992ZM381.288 6.61165C380.038 6.99362 378.935 7.54023 377.995 8.26337L379.214 9.84862C379.938 9.29176 380.819 8.84638 381.873 8.52435L381.288 6.61165ZM377.98 8.27513C377.076 8.99774 376.36 9.85713 375.845 10.8517L377.62 11.7723C378 11.0389 378.532 10.3943 379.229 9.83687L377.98 8.27513ZM375.838 10.8648C375.348 11.8448 375.108 12.9113 375.108 14.048H377.108C377.108 13.2007 377.285 12.4432 377.627 11.7592L375.838 10.8648ZM375.108 14.048C375.108 15.4962 375.522 16.7754 376.401 17.8139L377.928 16.5221C377.398 15.8966 377.108 15.0958 377.108 14.048H375.108ZM376.415 17.8306C377.248 18.7722 378.314 19.5637 379.588 20.2176L380.501 18.4384C379.406 17.8763 378.552 17.2278 377.913 16.5054L376.415 17.8306ZM379.588 20.2176C380.829 20.8549 382.225 21.4189 383.772 21.9127L384.38 20.0073C382.92 19.5411 381.628 19.0171 380.501 18.4384L379.588 20.2176ZM383.791 21.9184C385.28 22.3619 386.802 22.8533 388.357 23.3928L389.012 21.5032C387.431 20.9547 385.881 20.4541 384.362 20.0016L383.791 21.9184ZM388.38 23.4004C389.951 23.9033 391.474 24.4686 392.949 25.0962L393.732 23.2558C392.199 22.6034 390.618 22.0167 388.989 21.4956L388.38 23.4004ZM392.949 25.0962C394.373 25.7023 395.636 26.4555 396.743 27.3528L398.002 25.7992C396.741 24.7765 395.315 23.9297 393.732 23.2558L392.949 25.0962ZM396.743 27.3528C397.812 28.22 398.668 29.2904 399.31 30.5752L401.099 29.6808C400.333 28.1496 399.301 26.8519 398.002 25.7992L396.743 27.3528ZM399.323 30.5997C399.964 31.7986 400.308 33.292 400.308 35.12H402.308C402.308 33.044 401.917 31.2094 401.086 29.6563L399.323 30.5997ZM400.308 35.12C400.308 37.2382 399.931 39.1864 399.185 40.9754L401.031 41.7446C401.886 39.6936 402.308 37.4818 402.308 35.12H400.308ZM399.188 40.9699C398.446 42.719 397.35 44.2472 395.888 45.56L397.225 47.048C398.899 45.5448 400.17 43.777 401.029 41.7501L399.188 40.9699ZM395.897 45.5524C394.438 46.8322 392.634 47.8607 390.464 48.6248L391.129 50.5112C393.502 49.6753 395.538 48.5278 397.216 47.0556L395.897 45.5524ZM390.464 48.6248C388.321 49.3795 385.813 49.768 382.924 49.768V51.768C385.988 51.768 388.728 51.3565 391.129 50.5112L390.464 48.6248ZM382.924 49.768C379.64 49.768 376.695 49.2415 374.076 48.206L373.341 50.066C376.226 51.2065 379.425 51.768 382.924 51.768V49.768ZM374.085 48.2098C371.425 47.1269 369.191 45.7606 367.369 44.1207L366.031 45.6073C368.049 47.4234 370.488 48.9051 373.331 50.0622L374.085 48.2098ZM367.551 45.3895L369.567 42.1255L367.866 41.0745L365.85 44.3385L367.551 45.3895ZM369.568 42.1241C369.758 41.8152 369.961 41.6136 370.165 41.4837L369.091 39.7963C368.592 40.1144 368.187 40.5528 367.865 41.0759L369.568 42.1241ZM370.165 41.4837C370.315 41.3885 370.562 41.304 370.972 41.304V39.304C370.295 39.304 369.646 39.4435 369.092 39.7963L370.165 41.4837ZM370.972 41.304C371.282 41.304 371.692 41.4238 372.223 41.7952L373.37 40.1568C372.62 39.6322 371.815 39.304 370.972 39.304V41.304ZM372.223 41.7952C372.885 42.259 373.673 42.7671 374.581 43.3188L375.619 41.6092C374.736 41.0729 373.987 40.589 373.37 40.1568L372.223 41.7952ZM374.595 43.3267C375.594 43.9127 376.779 44.4345 378.137 44.8983L378.784 43.0057C377.518 42.5735 376.462 42.1033 375.606 41.6013L374.595 43.3267ZM378.137 44.8983C379.586 45.3931 381.336 45.624 383.356 45.624V43.624C381.473 43.624 379.959 43.4069 378.784 43.0057L378.137 44.8983ZM383.356 45.624C385.101 45.624 386.668 45.4063 388.041 44.9487L387.408 43.0513C386.285 43.4257 384.94 43.624 383.356 43.624V45.624ZM388.062 44.9412C389.407 44.4584 390.563 43.8077 391.507 42.973L390.182 41.475C389.461 42.1123 388.538 42.6456 387.387 43.0588L388.062 44.9412ZM391.507 42.973C392.447 42.1415 393.151 41.1669 393.597 40.0514L391.74 39.3086C391.418 40.1131 390.906 40.8345 390.182 41.475L391.507 42.973ZM393.586 40.0776C394.058 38.9871 394.292 37.8272 394.292 36.608H392.292C392.292 37.5648 392.11 38.4529 391.751 39.2824L393.586 40.0776ZM394.292 36.608C394.292 35.0723 393.867 33.7246 392.95 32.6475L391.427 33.9445C391.982 34.5954 392.292 35.4557 392.292 36.608H394.292ZM392.975 32.6782C392.168 31.6514 391.104 30.8133 389.813 30.1504L388.9 31.9296C389.977 32.4827 390.801 33.1486 391.402 33.9138L392.975 32.6782ZM389.832 30.1603C388.575 29.4811 387.148 28.9122 385.556 28.448L384.996 30.368C386.477 30.7998 387.769 31.3189 388.881 31.9197L389.832 30.1603ZM385.58 28.4553C384.077 27.9754 382.525 27.4795 380.925 26.9676L380.316 28.8724C381.916 29.3845 383.468 29.8806 384.972 30.3607L385.58 28.4553ZM380.931 26.9694C379.388 26.4657 377.861 25.8989 376.349 25.2689L375.58 27.1151C377.14 27.7651 378.717 28.3503 380.31 28.8706L380.931 26.9694ZM376.372 25.279C374.947 24.6422 373.683 23.8582 372.575 22.9295L371.29 24.4625C372.55 25.5178 373.974 26.3978 375.556 27.105L376.372 25.279ZM372.575 22.9295C371.498 22.0276 370.621 20.9192 369.943 19.5929L368.162 20.5031C368.956 22.0568 369.999 23.3804 371.29 24.4625L372.575 22.9295ZM369.955 19.6165C369.33 18.311 368.996 16.6904 368.996 14.72H366.996C366.996 16.9096 367.367 18.841 368.15 20.4795L369.955 19.6165ZM368.996 14.72C368.996 13.0067 369.35 11.3713 370.059 9.80451L368.237 8.97949C367.411 10.8047 366.996 12.7213 366.996 14.72H368.996ZM370.062 9.79814C370.769 8.208 371.799 6.82179 373.165 5.6346L371.852 4.12539C370.273 5.4982 369.064 7.12 368.235 8.98586L370.062 9.79814ZM373.174 5.62651C374.536 4.41212 376.228 3.43275 378.27 2.70142L377.595 0.818576C375.349 1.62324 373.425 2.72387 371.843 4.13348L373.174 5.62651ZM378.27 2.70142C380.286 1.97931 382.616 1.608 385.276 1.608V-0.392002C382.433 -0.392002 379.867 0.00468786 377.595 0.818577L378.27 2.70142ZM385.276 1.608C388.37 1.608 391.103 2.10276 393.493 3.07085L394.244 1.21715C391.578 0.137232 388.583 -0.392002 385.276 -0.392002V1.608ZM393.507 3.07644C395.955 4.02491 398.049 5.33357 399.804 6.99762L401.18 5.54637C399.223 3.69042 396.902 2.24709 394.23 1.21156L393.507 3.07644ZM399.641 5.7479L397.721 8.8679L399.424 9.9161L401.344 6.79609L399.641 5.7479ZM438.136 28.112H439.136V27.0789L438.103 27.1125L438.136 28.112ZM428.056 29.072L428.227 30.0572L428.237 30.0555L428.056 29.072ZM421.288 30.992L420.874 30.0816L420.868 30.0845L421.288 30.992ZM417.496 33.824L416.69 33.2316L416.684 33.2394L416.679 33.2473L417.496 33.824ZM416.968 40.784L416.055 41.1931L416.055 41.1931L416.968 40.784ZM418.648 43.088L417.994 43.8448L418.012 43.8606L418.031 43.8755L418.648 43.088ZM421.192 44.384L420.904 45.3418L420.923 45.3474L420.942 45.3523L421.192 44.384ZM428.488 44.336L428.712 45.3104L428.724 45.3077L428.736 45.3047L428.488 44.336ZM431.992 42.992L431.534 42.1026L431.524 42.1082L431.992 42.992ZM435.16 40.928L434.544 40.14L434.538 40.1447L434.532 40.1496L435.16 40.928ZM438.136 38.192L438.865 38.8759L439.136 38.5874V38.192H438.136ZM410.536 8.24L409.841 7.52015L409.286 8.05617L409.664 8.72953L410.536 8.24ZM419.224 2.432L418.842 1.50752L418.842 1.50752L419.224 2.432ZM436.792 1.856L437.182 0.935417L437.182 0.935417L436.792 1.856ZM442.12 5.6L442.863 4.93103L442.863 4.93103L442.12 5.6ZM445.384 11.408L444.432 11.7162L444.432 11.7162L445.384 11.408ZM446.488 50V51H447.488V50H446.488ZM440.776 49.616L440.235 50.4572L440.257 50.4713L440.279 50.4842L440.776 49.616ZM439.72 47.984L438.741 48.188L438.751 48.2391L438.767 48.2888L439.72 47.984ZM438.76 43.376L439.739 43.172L439.378 41.4417L438.081 42.6419L438.76 43.376ZM435.016 46.544L435.609 47.3491L435.616 47.3441L435.622 47.339L435.016 46.544ZM431.176 48.848L431.588 49.7591L431.597 49.7551L431.606 49.7509L431.176 48.848ZM426.856 50.24L426.652 49.261L426.64 49.2635L426.628 49.2663L426.856 50.24ZM416.488 50L416.177 50.9505L416.185 50.9532L416.194 50.9558L416.488 50ZM412.12 47.6L411.464 48.3551L411.474 48.3634L412.12 47.6ZM409.192 43.616L408.273 44.0121L408.278 44.0231L408.283 44.0339L409.192 43.616ZM409.72 32.336L410.577 32.8505L410.581 32.8437L409.72 32.336ZM414.856 27.584L415.358 28.4486L415.358 28.4486L414.856 27.584ZM424.12 24.224L424.341 25.1992L424.349 25.1974L424.12 24.224ZM438.136 22.688L438.159 23.6877L439.136 23.6651V22.688H438.136ZM435.688 10.352L434.92 10.9934L434.926 10.9996L435.688 10.352ZM423.208 8.24L423.549 9.17986L423.561 9.17547L423.208 8.24ZM419.512 10.016L420.042 10.864L420.049 10.8597L419.512 10.016ZM416.824 11.792L417.395 12.6129L417.402 12.608L416.824 11.792ZM413.128 12.128L412.518 12.9206L412.538 12.9359L412.558 12.9502L413.128 12.128ZM412.072 10.976L411.2 11.4655L411.214 11.4916L411.23 11.5168L412.072 10.976ZM438.103 27.1125C434.135 27.2416 430.723 27.5648 427.875 28.0885L428.237 30.0555C430.957 29.5552 434.264 29.2384 438.168 29.1115L438.103 27.1125ZM427.884 28.0869C425.082 28.5756 422.737 29.2348 420.874 30.0816L421.701 31.9024C423.358 31.1492 425.525 30.5284 428.227 30.0571L427.884 28.0869ZM420.868 30.0845C419.046 30.928 417.622 31.9634 416.69 33.2316L418.301 34.4164C418.969 33.5086 420.074 32.656 421.708 31.8995L420.868 30.0845ZM416.679 33.2473C415.79 34.5057 415.344 35.9235 415.344 37.472H417.344C417.344 36.3325 417.665 35.3183 418.313 34.4007L416.679 33.2473ZM415.344 37.472C415.344 38.8577 415.569 40.1077 416.055 41.1931L417.88 40.3749C417.535 39.6043 417.344 38.6463 417.344 37.472H415.344ZM416.055 41.1931C416.525 42.2419 417.169 43.1326 417.994 43.8448L419.301 42.3312C418.718 41.8274 418.242 41.1821 417.88 40.3749L416.055 41.1931ZM418.031 43.8755C418.872 44.5337 419.834 45.0206 420.904 45.3418L421.479 43.4262C420.63 43.1714 419.895 42.7943 419.264 42.3005L418.031 43.8755ZM420.942 45.3523C422.023 45.6312 423.163 45.768 424.36 45.768V43.768C423.316 43.768 422.345 43.6488 421.442 43.4157L420.942 45.3523ZM424.36 45.768C425.927 45.768 427.379 45.6181 428.712 45.3104L428.263 43.3616C427.1 43.6299 425.801 43.768 424.36 43.768V45.768ZM428.736 45.3047C430.057 44.966 431.299 44.4903 432.46 43.8758L431.524 42.1082C430.508 42.6457 429.415 43.066 428.239 43.3673L428.736 45.3047ZM432.449 43.8813C433.63 43.2738 434.743 42.5486 435.787 41.7064L434.532 40.1496C433.592 40.9074 432.593 41.5582 431.534 42.1027L432.449 43.8813ZM435.775 41.716C436.843 40.8819 437.873 39.9346 438.865 38.8759L437.406 37.5081C436.479 38.4974 435.524 39.3741 434.544 40.14L435.775 41.716ZM439.136 38.192V28.112H437.136V38.192H439.136ZM411.23 8.95984C413.837 6.44535 416.629 4.58346 419.605 3.35648L418.842 1.50752C415.61 2.84054 412.61 4.85065 409.841 7.52015L411.23 8.95984ZM419.605 3.35648C422.574 2.13219 425.882 1.512 429.544 1.512V-0.488001C425.653 -0.488001 422.081 0.171812 418.842 1.50752L419.605 3.35648ZM429.544 1.512C432.154 1.512 434.433 1.94178 436.401 2.77658L437.182 0.935417C434.926 -0.0217771 432.373 -0.488001 429.544 -0.488001V1.512ZM436.401 2.77658C438.388 3.61933 440.04 4.78467 441.376 6.26896L442.863 4.93103C441.319 3.21533 439.42 1.88467 437.182 0.935417L436.401 2.77658ZM441.376 6.26896C442.713 7.75373 443.735 9.563 444.432 11.7162L446.335 11.0998C445.56 8.70899 444.407 6.64627 442.863 4.93103L441.376 6.26896ZM444.432 11.7162C445.132 13.8759 445.488 16.2663 445.488 18.896H447.488C447.488 16.0857 447.107 13.4841 446.335 11.0998L444.432 11.7162ZM445.488 18.896V50H447.488V18.896H445.488ZM446.488 49H442.696V51H446.488V49ZM442.696 49C441.942 49 441.503 48.8799 441.272 48.7478L440.279 50.4842C440.944 50.8641 441.785 51 442.696 51V49ZM441.316 48.7748C441.149 48.667 440.896 48.3783 440.672 47.6792L438.767 48.2888C439.055 49.1897 439.507 49.989 440.235 50.4572L441.316 48.7748ZM440.699 47.78L439.739 43.172L437.781 43.58L438.741 48.188L440.699 47.78ZM438.081 42.6419C436.821 43.8074 435.597 44.8426 434.409 45.749L435.622 47.339C436.867 46.3894 438.139 45.3126 439.439 44.1101L438.081 42.6419ZM434.422 45.7389C433.257 46.5978 432.031 47.3329 430.746 47.9451L431.606 49.7509C433.008 49.0831 434.342 48.2822 435.609 47.3491L434.422 45.7389ZM430.763 47.9369C429.49 48.5129 428.121 48.955 426.652 49.261L427.06 51.219C428.663 50.885 430.173 50.3991 431.588 49.7591L430.763 47.9369ZM426.628 49.2663C425.212 49.5977 423.61 49.768 421.816 49.768V51.768C423.734 51.768 425.492 51.5863 427.084 51.2137L426.628 49.2663ZM421.816 49.768C420.019 49.768 418.343 49.5245 416.782 49.0442L416.194 50.9558C417.961 51.4995 419.836 51.768 421.816 51.768V49.768ZM416.798 49.0495C415.248 48.5428 413.908 47.8034 412.766 46.8366L411.474 48.3634C412.827 49.5086 414.399 50.3692 416.177 50.9505L416.798 49.0495ZM412.775 46.845C411.676 45.8905 410.782 44.6812 410.1 43.1981L408.283 44.0339C409.073 45.7508 410.131 47.1975 411.464 48.355L412.775 46.845ZM410.11 43.2199C409.471 41.7394 409.136 39.9598 409.136 37.856H407.136C407.136 40.1682 407.504 42.2286 408.273 44.0121L410.11 43.2199ZM409.136 37.856C409.136 36.1298 409.608 34.4662 410.577 32.8505L408.862 31.8215C407.72 33.7258 407.136 35.7422 407.136 37.856H409.136ZM410.581 32.8437C411.527 31.2391 413.093 29.7649 415.358 28.4486L414.353 26.7194C411.882 28.1551 410.024 29.8489 408.858 31.8283L410.581 32.8437ZM415.358 28.4486C417.61 27.1401 420.593 26.0495 424.341 25.1992L423.898 23.2488C420.03 24.1265 416.837 25.2759 414.353 26.7194L415.358 28.4486ZM424.349 25.1974C428.068 24.3223 432.666 23.8147 438.159 23.6877L438.113 21.6883C432.533 21.8173 427.788 22.3337 423.891 23.2506L424.349 25.1974ZM439.136 22.688V18.896H437.136V22.688H439.136ZM439.136 18.896C439.136 14.997 438.296 11.8764 436.45 9.70435L434.926 10.9996C436.343 12.6676 437.136 15.243 437.136 18.896H439.136ZM436.455 9.71058C434.589 7.47928 431.893 6.424 428.536 6.424V8.424C431.451 8.424 433.522 9.32072 434.92 10.9934L436.455 9.71058ZM428.536 6.424C426.345 6.424 424.441 6.70522 422.854 7.30452L423.561 9.17547C424.855 8.68677 426.503 8.424 428.536 8.424V6.424ZM422.866 7.3002C421.402 7.83236 420.103 8.45455 418.975 9.17234L420.049 10.8597C421.033 10.2334 422.197 9.67164 423.549 9.17979L422.866 7.3002ZM418.982 9.168C417.946 9.81551 417.033 10.4183 416.246 10.976L417.402 12.608C418.15 12.0777 419.03 11.4965 420.042 10.864L418.982 9.168ZM416.253 10.9711C415.647 11.3923 415.106 11.56 414.616 11.56V13.56C415.597 13.56 416.528 13.2157 417.395 12.6129L416.253 10.9711ZM414.616 11.56C414.214 11.56 413.923 11.4625 413.697 11.3058L412.558 12.9502C413.164 13.3695 413.865 13.56 414.616 13.56V11.56ZM413.737 11.3354C413.414 11.0865 413.14 10.7881 412.913 10.4352L411.23 11.5168C411.58 12.0599 412.01 12.5295 412.518 12.9206L413.737 11.3354ZM412.944 10.4865L411.408 7.75046L409.664 8.72953L411.2 11.4655L412.944 10.4865Z" fill="#64CCC5"/>
</svg>
